<?xml version="1.0" standalone="no"?>
<!DOCTYPE svg PUBLIC "-//W3C//DTD SVG 20010904//EN"
 "http://www.w3.org/TR/2001/REC-SVG-20010904/DTD/svg10.dtd">
<svg version="1.0" xmlns="http://www.w3.org/2000/svg"
 width="1280.000000pt" height="871.000000pt" viewBox="0 0 1280.000000 871.000000"
 preserveAspectRatio="xMidYMid meet">

<g transform="translate(0.000000,871.000000) scale(0.100000,-0.100000)"
fill="#000000" stroke="none">
<path d="M0 4355 l0 -4355 6400 0 6400 0 0 4355 0 4355 -6400 0 -6400 0 0
-4355z m826 4214 c32 -23 85 -63 116 -91 79 -68 93 -70 233 -45 129 24 243 33
229 18 -12 -13 -241 -60 -295 -61 -23 0 -42 -7 -53 -19 -17 -19 -17 -36 3
-377 12 -196 24 -360 27 -365 3 -5 43 -9 88 -9 l83 0 24 -35 c21 -32 28 -35
57 -30 30 6 32 4 32 -24 0 -25 5 -32 26 -37 32 -8 42 2 46 46 l3 35 83 -1 c97
-1 220 -37 308 -90 l56 -34 140 0 140 0 -4 -75 -3 -75 145 0 145 0 -3 76 -4
76 218 -4 c204 -3 223 -5 271 -27 87 -39 153 -127 153 -204 0 -48 -39 -117
-89 -154 -88 -68 -39 -65 -1152 -70 l-1006 -5 -7 34 c-13 70 -21 72 -280 79
-147 3 -242 10 -261 18 -112 46 -161 132 -120 212 19 36 144 137 203 163 47
21 54 36 17 36 -14 0 -25 2 -25 5 0 7 40 157 47 175 3 10 9 3 18 -20 8 -22 9
-41 3 -52 -9 -19 5 -58 22 -58 6 0 10 -6 10 -14 0 -7 7 -19 15 -26 13 -10 19
-10 33 4 10 9 26 16 34 16 43 0 47 76 6 104 -25 18 -17 49 16 64 23 10 25 17
28 107 2 52 1 100 0 106 -3 6 -31 7 -78 3 -53 -5 -74 -3 -74 5 0 7 26 11 75
11 82 0 77 -3 135 78 17 24 34 41 37 38 3 -3 -11 -28 -31 -56 -20 -27 -36 -58
-36 -68 1 -9 18 -37 40 -62 22 -24 37 -47 34 -50 -4 -3 -24 15 -45 40 l-39 45
0 -31 c0 -17 3 -59 6 -93 6 -52 10 -61 27 -61 11 0 17 3 14 7 -9 9 22 43 40
43 7 0 13 5 13 12 0 6 8 20 17 30 16 18 18 18 42 -6 15 -13 38 -36 54 -50 18
-17 27 -35 27 -56 0 -22 5 -30 18 -30 14 0 24 18 41 72 22 67 25 71 34 48 l9
-25 8 26 c4 14 10 104 14 200 4 96 9 186 12 202 9 45 -9 30 -35 -28 -22 -52
-46 -83 -56 -73 -7 7 31 129 60 195 31 69 24 91 -50 145 -75 56 -165 137 -165
149 0 16 16 10 76 -32z m1621 -29 c57 -24 119 -84 129 -125 11 -45 -1 -121
-25 -150 -72 -93 -216 -129 -351 -89 -40 12 -66 29 -107 70 l-54 54 -134 0
c-74 0 -136 4 -140 9 -7 13 43 51 69 51 11 0 35 9 51 20 35 23 93 26 121 5 27
-20 34 -19 34 8 0 32 50 99 95 127 89 55 213 63 312 20z m2323 -69 c0 -5 -10
-11 -22 -13 -32 -5 -32 -21 2 -40 48 -27 32 -84 -21 -76 -33 5 -36 27 -3 25
38 -3 41 19 5 38 -32 16 -40 42 -19 63 14 14 58 16 58 3z m970 -1 c0 -5 -7
-10 -15 -10 -18 0 -20 -20 -2 -21 10 0 10 -2 0 -6 -8 -3 -13 -23 -13 -49 0
-24 -4 -44 -10 -44 -5 0 -10 18 -10 39 0 22 -4 43 -10 46 -15 9 19 55 41 55
11 0 19 -4 19 -10z m154 -6 c9 -8 16 -20 16 -26 0 -19 -32 -48 -52 -48 -11 0
-18 -7 -18 -19 0 -11 -4 -23 -10 -26 -6 -4 -10 20 -10 64 l0 71 29 0 c16 0 37
-7 45 -16z m234 5 c-2 -6 -8 -10 -13 -10 -5 0 -11 4 -13 10 -2 6 4 11 13 11 9
0 15 -5 13 -11z m445 -54 c31 -74 31 -75 17 -75 -6 0 -15 11 -20 25 -13 34
-53 34 -68 -1 -7 -14 -17 -22 -22 -19 -6 4 -5 16 4 33 8 15 21 44 29 65 9 20
20 37 25 37 5 0 20 -29 35 -65z m357 12 c0 -29 5 -58 12 -65 17 -17 2 -28 -17
-12 -17 14 -22 130 -5 130 6 0 10 -24 10 -53z m280 43 c0 -5 -13 -10 -30 -10
-23 0 -30 -4 -30 -20 0 -15 7 -20 25 -20 14 0 25 -4 25 -10 0 -5 -11 -10 -25
-10 -18 0 -25 -5 -25 -20 0 -16 7 -20 30 -20 17 0 30 -4 30 -10 0 -5 -18 -10
-40 -10 l-40 0 0 70 0 70 40 0 c22 0 40 -4 40 -10z m4277 -12 c13 -12 23 -29
23 -39 0 -9 7 -22 15 -29 8 -7 17 -28 21 -49 4 -20 12 -43 19 -51 6 -8 18 -30
25 -49 12 -30 12 -35 -5 -47 -17 -12 -17 -15 -1 -38 20 -32 20 -52 1 -60 -14
-5 -14 -9 0 -35 19 -37 19 -61 1 -61 -13 0 -32 -77 -22 -88 3 -2 45 -7 94 -10
l90 -5 4 48 c3 42 1 48 -20 56 l-23 9 21 39 20 40 -21 11 -20 11 21 36 21 36
-21 14 -20 14 22 42 c13 23 28 47 35 52 7 6 13 28 15 50 2 32 7 40 23 40 16 0
21 -8 23 -43 2 -26 9 -45 18 -49 8 -3 24 -24 35 -47 20 -41 20 -41 0 -54 -20
-13 -20 -14 0 -45 23 -38 24 -57 4 -57 -19 0 -19 -13 0 -51 17 -32 13 -49 -11
-49 -10 0 -14 -13 -14 -50 l0 -50 105 0 c104 0 106 0 117 -26 14 -29 3 -53
-28 -68 -18 -8 -19 -21 -17 -255 2 -135 3 -306 3 -378 0 -75 4 -133 9 -133 5
0 12 10 14 23 2 12 5 4 6 -19 1 -27 8 -47 21 -59 17 -15 20 -29 19 -72 -1 -29
-8 -58 -14 -63 -6 -5 -117 -10 -246 -12 l-234 -3 0 -25 c0 -34 -21 -32 -45 5
l-20 30 0 -28 c0 -16 -4 -26 -10 -22 -5 3 -10 15 -10 26 0 17 -7 19 -62 18
-35 -1 -55 -3 -45 -6 20 -5 22 -19 5 -29 -6 -4 -16 0 -23 9 -15 21 -41 22 -53
2 -7 -14 -35 -15 -195 -13 -174 3 -186 2 -181 -14 3 -10 0 -18 -6 -18 -8 0
-11 13 -8 35 4 34 3 35 -29 35 -18 0 -33 5 -33 10 0 6 -16 10 -35 10 -24 0
-35 -5 -35 -15 0 -11 12 -15 50 -15 38 0 50 -4 50 -15 0 -13 -11 -15 -57 -13
-32 1 -97 1 -145 0 -71 -2 -88 -5 -88 -17 0 -8 -4 -15 -10 -15 -5 0 -10 6 -10
13 0 10 -16 12 -66 9 l-66 -4 4 28 c4 33 28 42 51 19 20 -20 56 -19 79 1 16
16 18 16 24 0 8 -22 154 -24 154 -2 0 7 -9 16 -20 19 -12 3 -21 14 -21 29 -2
23 -2 23 -6 1 -5 -25 -19 -27 -173 -24 -98 2 -116 24 -27 32 l62 6 -58 1 c-50
2 -60 5 -64 22 -4 14 -14 20 -34 20 -29 0 -35 -13 -30 -57 2 -14 -63 -19 -190
-14 -48 2 -79 -1 -83 -8 -5 -7 7 -11 36 -12 24 0 87 -1 141 -2 l97 -1 0 -39
c0 -38 1 -39 29 -35 17 2 28 1 25 -4 -3 -4 -41 -8 -84 -8 -71 0 -79 2 -85 21
-4 12 -13 18 -20 15 -8 -3 -28 -1 -44 4 -31 9 -31 8 -31 -31 0 -35 -2 -39 -22
-35 -16 2 -23 10 -23 26 0 13 -6 25 -13 28 -6 2 -12 -1 -12 -7 0 -12 -47 -5
-66 10 -6 5 -33 7 -60 4 -27 -2 -86 -4 -132 -5 -49 0 -81 -4 -77 -9 3 -5 1
-12 -5 -16 -5 -3 -10 1 -10 9 0 18 -2 19 -83 20 -42 1 -56 -2 -52 -11 2 -7 0
-13 -5 -13 -6 0 -10 -9 -10 -20 0 -11 -4 -20 -10 -20 -5 0 -10 13 -10 30 0 19
-7 33 -19 40 -29 15 -41 12 -41 -10 0 -29 -46 -28 -53 1 -4 16 -11 20 -24 15
-14 -6 -15 -5 -6 5 9 9 78 12 276 10 232 -2 265 0 270 13 5 11 21 16 54 17 26
1 39 3 28 6 -11 2 -30 6 -42 9 -16 3 -23 12 -23 29 0 20 -5 25 -25 25 -18 0
-23 -4 -18 -16 6 -16 -15 -37 -29 -28 -4 3 -8 14 -8 25 0 11 -7 19 -16 19 -10
0 -14 -6 -11 -14 9 -23 -21 -42 -43 -28 -10 6 -21 8 -25 4 -7 -8 -32 -9 -348
-11 l-218 -2 3 -22 c2 -18 12 -23 48 -28 25 -4 47 -2 48 2 7 19 22 8 22 -15 0
-20 6 -25 33 -29 22 -3 15 -4 -20 -5 -48 -2 -53 0 -53 19 0 19 -4 20 -60 16
-33 -3 -63 -1 -66 4 -3 5 2 9 10 9 10 0 16 9 16 25 0 21 -5 25 -27 25 -16 0
-39 3 -52 7 -23 6 -23 7 -5 14 10 4 34 8 52 8 52 1 34 25 -21 29 -26 2 -47 7
-47 13 0 5 7 9 15 9 8 0 15 5 15 10 0 6 -8 10 -17 10 -15 0 -14 2 3 15 19 14
19 14 -1 15 -18 1 -18 2 -3 13 15 10 15 12 0 24 -16 11 -16 12 1 13 9 0 17 5
17 10 0 6 -8 11 -17 11 -17 1 -17 2 0 6 22 6 22 23 0 23 -46 0 16 17 70 19 15
1 17 15 17 152 0 116 3 150 13 147 9 -4 13 -46 15 -156 2 -151 3 -152 25 -148
21 3 22 8 27 152 l6 149 2 -147 c1 -89 6 -148 12 -148 6 0 11 117 12 317 2
242 6 317 16 321 9 3 12 -67 13 -325 0 -180 3 -321 6 -313 18 44 54 53 52 13
-1 -16 2 -37 6 -47 7 -16 5 -18 -8 -13 -14 5 -15 4 -4 -14 10 -17 9 -22 -5
-30 -10 -6 -18 -19 -18 -30 0 -16 6 -20 28 -17 l27 3 3 158 c2 157 3 158 25
155 22 -3 22 -6 25 -160 2 -148 4 -158 22 -158 10 0 21 4 24 9 9 14 -4 41 -20
41 -8 0 -14 5 -14 10 0 6 5 10 11 10 5 0 7 5 4 10 -3 6 3 23 14 39 19 27 21
43 21 215 0 117 4 186 10 186 6 0 10 -83 11 -227 1 -348 2 -376 17 -380 9 -4
12 33 12 161 l0 166 85 0 85 0 3 -162 c2 -129 3 -111 5 85 l2 247 40 0 c22 0
40 -4 40 -10 0 -6 28 -10 65 -10 l65 0 0 40 c0 22 5 40 10 40 6 0 10 -58 10
-154 0 -103 4 -157 11 -162 22 -13 26 19 28 214 1 108 6 201 12 207 11 11 11
22 9 -167 -1 -106 2 -158 9 -158 7 0 11 -23 11 -55 0 -55 6 -65 27 -44 8 8 14
5 23 -11 12 -23 4 -43 -9 -22 -11 18 -41 4 -41 -19 0 -10 9 -23 20 -29 11 -6
22 -26 26 -46 3 -19 11 -33 18 -31 8 3 10 43 7 135 -2 92 0 132 8 132 6 0 11
-19 11 -45 0 -35 3 -43 15 -39 9 4 15 19 15 40 0 37 10 43 33 19 9 -9 40 -15
83 -17 l69 -3 3 -77 c3 -74 4 -78 26 -78 19 0 23 -6 24 -29 0 -25 -4 -30 -26
-34 -17 -2 -4 -6 36 -11 51 -7 62 -12 62 -27 0 -11 5 -19 10 -19 6 0 10 62 10
165 0 103 4 165 10 165 6 0 10 -25 10 -56 0 -34 4 -53 10 -49 6 3 10 40 10 81
l0 75 58 -3 57 -3 0 -200 0 -199 58 -4 c42 -2 62 1 73 13 8 8 11 15 5 15 -7 0
-11 24 -11 60 0 45 4 60 14 60 8 0 17 -12 20 -26 5 -18 12 -24 22 -20 9 3 19
6 22 6 4 0 7 179 7 399 0 389 0 399 -20 407 -24 11 -33 68 -14 90 10 12 30 13
111 8 l98 -7 0 52 c0 38 -4 51 -14 51 -24 0 -25 13 -6 52 17 36 17 37 -1 50
-18 13 -18 14 0 50 18 36 18 37 -1 50 -19 13 -19 14 1 54 11 23 27 44 35 47 9
4 16 23 18 49 2 35 7 43 23 43 16 0 21 -8 23 -43 2 -26 9 -45 18 -49 8 -3 23
-26 34 -51 16 -36 18 -47 8 -54 -7 -4 -16 -8 -21 -8 -4 0 2 -18 13 -40 20 -39
20 -39 0 -50 -20 -10 -20 -11 0 -47 20 -38 19 -53 -6 -53 -10 0 -14 -13 -14
-51 l0 -52 90 5 c50 3 93 8 96 11 12 11 -8 87 -22 87 -18 0 -18 12 3 55 16 33
16 36 -1 48 -18 13 -18 15 -1 47 16 32 16 34 0 46 -20 15 -15 37 20 88 17 25
25 52 27 93 3 52 1 58 -22 70 -20 10 -202 12 -917 10 -841 -2 -893 -3 -910
-20 -17 -16 -18 -50 -20 -454 -1 -239 -5 -438 -8 -441 -3 -3 -5 198 -5 446 l0
451 26 20 c27 21 31 21 932 21 l906 0 23 -22z m-6647 -3 c0 -8 8 -15 18 -15
16 -1 16 -1 0 -11 -21 -12 -24 -65 -5 -72 6 -2 9 -8 5 -12 -13 -14 -38 16 -38
46 0 15 -4 31 -10 34 -6 4 -5 13 3 25 14 24 27 26 27 5z m343 -28 c-18 -11
-16 -56 2 -63 19 -8 19 -24 0 -24 -18 0 -35 31 -35 63 0 21 -4 23 -32 19 -18
-3 -36 -10 -40 -15 -10 -17 10 -47 32 -47 11 0 20 -4 20 -10 0 -20 -50 -10
-65 14 -27 40 -3 76 51 76 19 0 34 6 38 15 5 13 8 13 24 -2 14 -14 15 -20 5
-26z m1197 28 c0 -8 8 -15 18 -15 16 -1 16 -1 0 -11 -21 -12 -24 -65 -5 -72 6
-2 9 -8 5 -12 -16 -17 -38 5 -38 39 0 19 -4 38 -10 41 -6 4 -5 13 3 25 14 24
27 26 27 5z m-1452 -29 c-11 -8 -18 -26 -18 -44 0 -52 -18 -45 -22 8 -3 50 -3
50 27 50 27 -1 28 -2 13 -14z m42 -20 c0 -19 5 -38 10 -41 18 -11 40 15 40 46
0 16 5 29 10 29 6 0 10 -21 10 -47 0 -47 0 -48 -33 -48 -17 0 -38 4 -44 8 -15
10 -18 87 -3 87 6 0 10 -15 10 -34z m284 -7 c5 -31 10 -40 24 -37 12 2 18 15
20 41 3 36 4 37 43 37 43 0 46 -4 24 -26 -8 -9 -15 -28 -15 -43 0 -27 -1 -28
-51 -27 -56 2 -69 13 -69 64 0 45 16 40 24 -9z m224 14 c3 -20 -1 -23 -32 -23
-20 0 -36 -4 -36 -9 0 -11 25 -21 51 -21 11 0 17 -4 14 -10 -9 -15 -52 -12
-69 6 -19 19 -21 55 -4 72 7 7 26 12 43 10 22 -2 31 -9 33 -25z m171 13 c22
-26 9 -70 -23 -81 -24 -8 -31 -6 -47 14 -23 28 -24 45 -3 65 19 20 58 21 73 2z
m318 -4 c-10 -10 -17 -33 -17 -50 0 -18 -4 -32 -10 -32 -5 0 -10 23 -10 50 0
47 1 50 27 50 25 0 25 -1 10 -18z m109 -7 c15 -23 15 -27 0 -50 -10 -15 -26
-25 -41 -25 -15 0 -31 10 -41 25 -15 23 -15 27 0 50 10 15 26 25 41 25 15 0
31 -10 41 -25z m54 9 c0 -14 1 -14 16 0 28 29 84 14 84 -21 0 -8 -13 -13 -36
-13 -24 0 -34 -4 -31 -12 2 -7 16 -13 30 -13 16 1 27 -5 27 -12 0 -23 -57 -15
-74 9 -16 22 -16 22 -16 1 0 -25 -35 -71 -46 -60 -4 4 -2 13 4 19 7 7 12 36
12 65 0 40 4 53 15 53 8 0 15 -7 15 -16z m190 7 c0 -5 -10 -11 -22 -13 -33 -4
-33 -53 -1 -53 33 -1 33 -19 1 -23 -47 -6 -73 64 -34 90 16 11 56 10 56 -1z
m432 -5 c11 -16 10 -86 -1 -86 -6 0 -11 17 -13 37 -2 27 -8 39 -20 41 -15 3
-18 -4 -18 -38 0 -53 -24 -50 -28 4 -3 29 -7 36 -20 34 -12 -2 -18 -15 -20
-41 -5 -55 -22 -45 -22 13 l0 49 68 -1 c37 0 70 -6 74 -12z m124 -7 c17 -19
17 -23 3 -47 -9 -17 -25 -28 -41 -30 -16 -2 -28 -11 -31 -24 -11 -40 -27 -6
-27 58 l0 64 38 0 c27 0 45 -7 58 -21z m172 9 c23 -23 13 -38 -24 -38 -24 0
-34 -4 -31 -12 2 -7 16 -13 30 -13 16 1 27 -5 27 -12 0 -8 -12 -13 -30 -13
-50 0 -75 65 -36 92 17 12 51 9 64 -4z m270 -40 c2 -29 -1 -48 -7 -48 -6 0
-11 18 -11 41 0 36 -2 40 -22 37 -19 -2 -24 -10 -26 -40 -5 -56 -22 -46 -22
13 l0 50 43 -3 42 -3 3 -47z m120 25 c3 -20 -1 -23 -32 -23 -42 0 -48 -17 -8
-26 45 -10 48 -11 28 -19 -31 -13 -71 7 -74 38 -5 39 15 59 52 55 23 -2 32 -9
34 -25z m70 14 c-9 -7 -18 -29 -20 -48 -5 -50 -20 -41 -22 14 -2 46 -1 47 29
47 26 -1 28 -2 13 -13z m126 -12 c4 -14 11 -25 16 -25 6 0 16 11 22 25 10 22
28 35 28 19 0 -19 -55 -116 -71 -124 -23 -13 -25 -3 -2 22 15 17 15 21 -3 59
l-18 42 -9 -27 c-5 -14 -16 -26 -25 -27 -14 0 -12 -3 6 -16 25 -18 28 -35 7
-53 -15 -13 -55 -5 -55 11 0 6 9 8 19 4 27 -8 36 12 11 25 -28 15 -44 58 -29
76 6 8 30 14 54 14 37 0 44 -3 49 -25z m-6986 -62 c19 -9 42 -29 51 -45 9 -16
25 -28 36 -28 27 0 65 -27 65 -46 0 -12 -38 -14 -240 -14 -133 0 -240 4 -240
9 0 5 8 19 19 32 14 18 30 24 67 25 39 2 50 6 58 24 12 27 78 59 119 60 16 0
45 -8 65 -17z m922 -52 c0 -6 -22 -40 -50 -76 -27 -36 -50 -73 -50 -81 0 -8
28 -48 62 -89 33 -42 59 -78 56 -80 -5 -6 -84 72 -112 110 -8 11 -16 18 -18
15 -2 -3 -1 -59 2 -125 4 -66 6 -121 6 -122 -1 0 -10 -3 -21 -5 -19 -3 -20 2
-16 140 l4 142 -129 1 c-145 1 -136 16 11 18 116 2 130 6 157 50 22 35 86 111
94 111 2 0 4 -4 4 -9z m1321 -178 c18 -18 -7 -25 -77 -21 -64 3 -80 22 -36 44
26 13 91 -1 113 -23z m-301 -20 c13 -9 32 -24 41 -32 9 -9 29 -24 43 -34 14
-10 26 -24 26 -32 0 -13 -29 -15 -179 -15 -105 0 -182 4 -186 10 -8 12 30 50
51 50 8 0 30 16 48 35 29 31 39 35 82 35 30 0 59 -7 74 -17z m2140 -119 c71
-22 89 -33 144 -87 82 -81 110 -148 110 -262 0 -110 -28 -178 -103 -254 -98
-99 -209 -135 -332 -107 -88 20 -141 50 -196 109 -52 56 -76 103 -97 188 -16
62 -16 71 -1 130 25 96 39 124 91 179 59 63 101 89 178 111 83 24 112 23 206
-7z m3192 -19 c73 -18 122 -50 181 -114 62 -70 90 -145 90 -241 0 -144 -77
-266 -211 -332 -61 -30 -75 -33 -157 -33 -75 1 -99 5 -147 27 -110 51 -180
139 -213 268 -14 54 -15 74 -5 124 31 159 134 268 290 307 69 17 82 17 172 -6z
m-1932 -90 c0 -21 -5 -25 -29 -25 -17 0 -33 5 -36 10 -13 21 4 40 35 40 25 0
30 -4 30 -25z m-3196 -42 c4 -5 18 -8 29 -8 13 0 22 -6 22 -15 0 -8 7 -21 15
-27 13 -12 13 -14 0 -25 -8 -7 -15 -20 -15 -28 0 -9 -9 -15 -23 -15 -13 0 -30
-8 -36 -17 -12 -16 -14 -16 -29 0 -10 9 -27 17 -40 17 -14 0 -21 5 -19 15 2 8
-5 20 -14 27 -17 12 -17 14 1 26 10 8 15 19 11 25 -7 11 5 16 31 13 6 -1 14 3
18 9 7 12 38 13 49 3z m-123 -119 c11 -14 10 -19 -10 -35 -13 -11 -27 -19 -31
-19 -4 0 -18 8 -31 19 -20 16 -21 21 -10 35 7 9 26 16 41 16 15 0 34 -7 41
-16z m3639 -11 c0 -4 -15 -22 -32 -41 -32 -33 -33 -34 -13 -48 11 -9 26 -19
34 -23 11 -7 -1 -27 -49 -90 -35 -44 -65 -79 -67 -77 -2 2 5 26 16 54 l20 51
-44 26 c-25 14 -45 29 -45 32 0 4 7 33 16 65 l17 58 73 0 c41 0 74 -3 74 -7z
m-2601 -22 c20 -13 -4 -24 -58 -28 -64 -3 -106 -46 -106 -108 0 -28 6 -50 16
-61 15 -15 19 -13 45 20 24 29 36 36 65 36 20 0 39 -3 42 -7 4 -3 -32 -28 -79
-55 -81 -47 -87 -48 -100 -31 -24 32 -33 77 -17 89 12 10 11 12 -1 17 -30 12
8 87 59 118 31 20 109 25 134 10z m5051 -1 c13 -9 13 -11 0 -20 -8 -5 -34 -10
-56 -10 -80 0 -129 -75 -98 -149 l15 -36 35 38 c29 30 42 37 75 37 21 0 39 -4
39 -8 0 -9 -169 -107 -174 -101 -2 2 -11 18 -20 36 -19 38 -21 73 -3 74 10 0
10 2 0 6 -33 13 0 89 53 124 31 20 109 26 134 9z m-5920 -15 c0 -17 -35 -55
-50 -55 -5 0 -10 -13 -10 -30 0 -16 -5 -30 -11 -30 -8 0 -10 13 -5 38 3 20 6
48 7 62 0 14 3 19 6 13 4 -10 10 -10 26 2 27 19 37 19 37 0z m3132 -17 c2 -14
12 -25 28 -29 l25 -6 -27 -11 c-18 -7 -28 -19 -28 -32 0 -28 -17 -25 -24 5 -4
16 -13 25 -26 25 -11 0 -20 5 -20 10 0 6 9 10 20 10 13 0 22 9 26 25 8 31 22
32 26 3z m-2193 -30 c21 -45 22 -108 3 -145 -31 -57 -106 -89 -169 -71 -35 9
-36 11 -19 24 11 7 29 11 41 8 34 -8 92 21 109 55 31 59 9 139 -31 115 -10 -6
-22 -20 -28 -32 -8 -18 -18 -22 -57 -22 -27 0 -48 4 -48 9 0 7 154 97 172 100
3 0 15 -18 27 -41z m5053 -1 c52 -132 -39 -250 -166 -216 -38 10 -40 12 -21
25 11 8 30 12 42 9 30 -7 86 17 107 46 21 31 21 102 0 120 -14 11 -20 9 -45
-19 -24 -27 -36 -32 -74 -32 -25 0 -45 4 -45 8 0 7 167 101 180 102 3 0 12
-19 22 -43z m-6186 -9 l-16 -22 0 26 c0 14 6 28 13 31 19 6 20 -10 3 -35z
m-411 -88 c-3 -5 -10 -10 -16 -10 -5 0 -9 5 -9 10 0 6 7 10 16 10 8 0 12 -4 9
-10z m95 -75 c-6 -8 -9 -19 -5 -25 4 -6 4 -18 1 -26 -5 -13 -9 -12 -25 3 -28
26 -18 63 16 63 21 0 23 -2 13 -15z m6790 -284 c0 -198 -2 -230 -16 -235 -22
-8 -9 -24 29 -35 22 -6 25 -9 11 -10 -11 -1 -28 -7 -38 -14 -16 -12 -16 -15
-1 -50 16 -38 16 -38 -7 -35 l-23 3 -3 223 c-2 193 0 222 13 222 12 0 15 15
15 80 0 47 4 80 10 80 6 0 10 -83 10 -229z m103 215 c-4 -14 -66 -12 -71 3 -3
9 7 11 34 9 22 -2 38 -7 37 -12z m-3 -36 c0 -5 -16 -10 -36 -10 -21 0 -33 4
-29 10 3 6 19 10 36 10 16 0 29 -4 29 -10z m-438 -307 c8 -10 14 -10 24 -2 10
8 14 3 20 -26 8 -45 -1 -118 -15 -123 -15 -5 -14 -23 1 -19 8 1 12 -8 10 -25
-2 -14 2 -29 7 -33 6 -3 11 -14 11 -23 0 -10 -3 -13 -8 -6 -4 6 -15 13 -24 17
-11 4 -15 13 -11 26 4 15 1 21 -12 21 -13 0 -15 6 -10 30 4 19 2 36 -5 45 -8
10 -11 34 -8 65 5 45 3 48 -13 40 -22 -12 -29 -12 -29 -1 0 5 9 11 20 14 19 5
20 14 22 149 l2 143 3 -139 c2 -83 8 -145 15 -153z m438 277 c0 -5 -17 -9 -37
-9 l-38 2 35 7 c19 4 36 8 38 9 1 0 2 -3 2 -9z m0 -37 c0 -10 -57 -9 -67 0 -3
4 10 7 30 7 21 0 37 -3 37 -7z m-1760 -30 c0 -5 -142 -201 -315 -438 -295
-403 -313 -430 -298 -447 19 -21 22 -19 -45 -52 l-54 -27 6 30 c3 17 9 44 12
61 5 25 9 29 28 24 20 -5 55 39 318 398 162 222 302 415 312 431 17 25 36 36
36 20z m1710 -3 c0 -5 -2 -10 -4 -10 -3 0 -8 5 -11 10 -3 6 -1 10 4 10 6 0 11
-4 11 -10z m50 0 c0 -5 -4 -10 -9 -10 -6 0 -13 5 -16 10 -3 6 1 10 9 10 9 0
16 -4 16 -10z m-4060 -425 c256 -373 291 -420 313 -418 20 1 26 -4 31 -29 3
-17 6 -43 6 -59 l0 -28 -47 26 c-62 34 -59 31 -40 50 18 18 23 9 -395 616 -98
143 -178 261 -178 264 0 24 62 -60 310 -422z m4060 395 c0 -5 -8 -10 -17 -10
-15 0 -16 2 -3 10 19 12 20 12 20 0z m-43 -6 c-3 -3 -12 -4 -19 -1 -8 3 -5 6
6 6 11 1 17 -2 13 -5z m0 -30 c-3 -3 -12 -4 -19 -1 -8 3 -5 6 6 6 11 1 17 -2
13 -5z m40 0 c-3 -3 -12 -4 -19 -1 -8 3 -5 6 6 6 11 1 17 -2 13 -5z m-286 -81
c0 -32 1 -89 2 -128 l1 -70 53 3 c43 3 53 1 53 -12 0 -12 -11 -16 -45 -16 -38
0 -45 -3 -45 -20 0 -14 -9 -21 -35 -26 -20 -3 -35 -12 -35 -20 0 -8 -4 -14 -9
-14 -14 0 -23 18 -12 24 5 3 7 15 4 25 -4 15 1 20 23 23 15 2 29 9 32 15 2 9
-5 11 -29 6 l-32 -6 7 123 c7 124 15 168 17 94 1 -33 2 -35 9 -14 26 89 40 94
41 13z m249 53 c0 -11 -19 -15 -25 -6 -3 5 1 10 9 10 9 0 16 -2 16 -4z m40 -6
c0 -5 -4 -10 -9 -10 -6 0 -13 5 -16 10 -3 6 1 10 9 10 9 0 16 -4 16 -10z
m-2743 -110 c-22 -6 -22 -8 -25 -298 -1 -183 -6 -292 -12 -292 -6 0 -10 107
-10 291 0 284 0 291 -20 296 -24 6 -20 27 13 82 l20 34 28 -54 27 -54 -21 -5z
m3122 79 c-19 -12 -24 -2 -8 17 9 11 14 13 17 4 3 -7 -2 -16 -9 -21z m931 5
c0 -8 -7 -14 -15 -14 -15 0 -21 21 -9 33 10 9 24 -2 24 -19z m338 -10 c-1 -10
-7 -16 -13 -13 -10 4 -14 28 -7 42 7 14 24 -10 20 -29z m1229 -6 c-3 -7 -5 -2
-5 12 0 14 2 19 5 13 2 -7 2 -19 0 -25z m-6087 -278 c0 -283 0 -290 20 -290
11 0 20 -7 20 -15 0 -20 -38 -95 -48 -95 -9 0 -52 84 -52 101 0 5 8 9 18 7 16
-3 17 17 20 290 1 183 6 292 12 292 6 0 10 -106 10 -290z m3167 284 c-3 -3
-12 -4 -19 -1 -8 3 -5 6 6 6 11 1 17 -2 13 -5z m1383 -35 c0 -14 -5 -19 -17
-17 -26 5 -29 38 -4 38 15 0 21 -6 21 -21z m-1383 5 c-3 -3 -12 -4 -19 -1 -8
3 -5 6 6 6 11 1 17 -2 13 -5z m2960 -26 c-3 -7 -5 -2 -5 12 0 14 2 19 5 13 2
-7 2 -19 0 -25z m318 22 c3 -5 -3 -10 -14 -10 -12 0 -21 5 -21 10 0 6 6 10 14
10 8 0 18 -4 21 -10z m-1625 -40 c0 -5 -9 -10 -21 -10 -11 0 -17 5 -14 10 3 6
13 10 21 10 8 0 14 -4 14 -10z m-1812 -12 c15 -15 16 -68 2 -68 -6 0 -21 10
-33 21 -12 12 -16 19 -9 15 7 -5 12 -1 12 9 0 9 -4 13 -10 10 -5 -3 -10 -2
-10 4 0 8 14 18 31 20 3 1 10 -4 17 -11z m3180 -60 c-3 -71 -4 -73 -30 -76
-28 -3 -39 12 -15 22 8 3 7 8 -5 16 -13 8 -18 24 -18 60 l0 50 35 0 36 0 -3
-72z m60 -20 c-2 -24 -7 -41 -12 -40 -5 2 -13 -2 -17 -10 -5 -8 -9 7 -9 40 0
46 2 52 21 52 18 0 20 -5 17 -42z m237 32 c3 -5 1 -10 -4 -10 -6 0 -11 5 -11
10 0 6 2 10 4 10 3 0 8 -4 11 -10z m-1698 -47 c-3 -10 -5 -4 -5 12 0 17 2 24
5 18 2 -7 2 -21 0 -30z m1733 12 c0 -8 -7 -15 -16 -15 -14 0 -14 3 -4 15 7 8
14 15 16 15 2 0 4 -7 4 -15z m-3830 -35 c0 -22 -4 -40 -10 -40 -5 0 -10 18
-10 40 0 22 5 40 10 40 6 0 10 -18 10 -40z m3885 -10 c3 -5 2 -10 -4 -10 -5 0
-13 5 -16 10 -3 6 -2 10 4 10 5 0 13 -4 16 -10z m-3828 -15 c8 -22 -6 -33 -17
-15 -13 20 -12 30 0 30 6 0 13 -7 17 -15z m3438 -15 c3 -6 -1 -7 -10 -4 -8 4
-22 1 -29 -5 -9 -8 -16 -8 -20 -2 -4 5 2 12 11 14 31 8 42 7 48 -3z m65 -16
c0 -10 16 -14 64 -14 57 0 64 2 70 22 4 17 8 20 17 11 9 -9 8 -16 -5 -28 -13
-14 -32 -16 -96 -13 -78 3 -79 3 -83 -22 -2 -14 -5 -4 -6 22 -1 42 1 46 19 41
11 -3 20 -12 20 -19z m340 12 c0 -11 -18 -15 -74 -18 -68 -3 -73 -2 -65 15 13
23 139 26 139 3z m-3883 -26 c6 -24 19 -26 31 -4 8 14 10 11 14 -12 l4 -29
-53 3 c-29 2 -53 8 -53 14 0 5 9 7 19 3 11 -3 22 -1 26 5 3 5 -1 10 -9 10 -17
0 -21 12 -9 23 12 13 25 7 30 -13z m2778 -10 c-3 -5 -11 -10 -16 -10 -6 0 -7
5 -4 10 3 6 11 10 16 10 6 0 7 -4 4 -10z m-2492 -7 c-7 -2 -14 -17 -14 -31 -1
-18 -3 -21 -6 -9 -6 24 3 47 19 46 10 0 10 -2 1 -6z m39 -25 c-6 -6 -14 -9
-17 -6 -3 3 -3 13 1 22 5 12 10 14 17 7 8 -8 8 -14 -1 -23z m187 13 c-15 -12
-39 -19 -62 -18 -32 1 -35 3 -22 16 8 9 34 17 61 19 l48 3 -25 -20z m2921 9
c0 -6 -49 -10 -126 -10 -108 0 -125 -2 -120 -15 3 -8 1 -15 -4 -15 -6 0 -10 6
-10 14 0 8 -6 16 -12 19 -7 2 48 5 122 6 74 1 136 4 139 6 7 8 11 6 11 -5z
m-3200 -27 c0 -7 -7 -13 -15 -13 -8 0 -15 6 -15 13 0 8 7 14 15 14 8 0 15 -6
15 -14z m2730 7 c0 -5 -2 -10 -4 -10 -3 0 -8 5 -11 10 -3 6 -1 10 4 10 6 0 11
-4 11 -10z m-270 -10 c0 -5 -2 -10 -4 -10 -3 0 -8 5 -11 10 -3 6 -1 10 4 10 6
0 11 -4 11 -10z m88 -413 l2 -337 -267 2 -268 3 -3 325 c-1 179 0 331 3 338 3
10 62 12 267 10 l263 -3 3 -338z m-649 105 c-1 -193 0 -197 20 -200 27 -4 27
-13 -8 -73 l-28 -50 -27 50 c-31 61 -32 71 -6 71 19 0 20 7 20 198 0 109 3
202 6 205 20 19 25 -24 23 -201z m1093 -209 l3 -328 133 -3 132 -3 0 -219 c0
-189 2 -220 15 -220 19 0 19 -2 -2 -45 -20 -43 -28 -44 -48 -5 -19 37 -19 50
0 50 13 0 15 30 15 210 l0 209 -132 3 -133 3 -3 338 c-1 220 1 337 8 337 6 0
11 -118 12 -327z m-10314 250 c11 -32 23 -66 27 -75 6 -15 2 -18 -19 -18 l-26
0 -2 -1897 -3 -1898 -2 1898 c-3 1889 -3 1897 -23 1897 -11 0 -20 3 -20 6 0 7
44 144 46 144 1 0 11 -26 22 -57z m8522 -193 c0 -5 -7 -10 -15 -10 -8 0 -15 5
-15 10 0 6 7 10 15 10 8 0 15 -4 15 -10z m-1679 -116 c77 -40 139 -159 117
-227 -26 -77 -32 -89 -73 -126 -104 -96 -267 -63 -332 67 -33 68 -33 122 1
190 28 55 81 98 138 113 41 10 114 2 149 -17z m1817 5 c-10 -17 -10 -23 0 -26
18 -7 15 -22 -14 -57 -24 -28 -26 -28 -19 -7 6 19 2 28 -15 41 -16 12 -20 22
-15 43 6 23 13 27 41 27 32 0 33 -1 22 -21z m-145 -15 c3 -3 3 -12 0 -20 -4
-11 -9 -12 -19 -3 -8 6 -11 15 -8 20 6 10 18 12 27 3z m-683 -24 c13 -9 13
-11 0 -20 -8 -5 -29 -10 -47 -10 -50 0 -81 -20 -103 -66 -19 -39 -20 -45 -6
-78 8 -20 19 -36 24 -36 4 0 18 14 30 30 13 17 29 30 37 30 8 0 15 5 15 10 0
6 -16 10 -35 10 -19 0 -35 4 -35 9 0 8 173 105 175 98 0 -1 8 -16 18 -34 9
-17 17 -41 17 -52 0 -32 -29 -25 -41 9 -13 36 -28 38 -58 6 l-23 -25 21 -13
c12 -7 21 -16 21 -20 0 -3 -26 -21 -57 -39 -32 -17 -74 -41 -93 -52 -19 -11
-32 -17 -28 -13 4 5 -2 25 -13 44 -40 76 -13 167 61 204 38 20 97 23 120 8z
m-3010 -50 l0 -30 -75 0 -75 0 0 30 0 30 75 0 75 0 0 -30z m4461 -89 c42 -43
40 -89 -6 -136 -48 -47 -85 -47 -131 -1 -45 45 -47 95 -5 137 23 23 38 29 71
29 33 0 48 -6 71 -29z m-4461 -31 l0 -30 -75 0 -75 0 0 30 0 30 75 0 75 0 0
-30z m3096 -12 c-13 -65 -95 -116 -165 -102 -58 12 -45 40 17 36 43 -3 88 24
107 65 21 45 50 45 41 1z m1018 -9 c13 -6 32 -26 41 -43 15 -28 16 -38 6 -68
-14 -43 -28 -56 -78 -74 -28 -9 -32 -13 -15 -14 12 0 22 -6 22 -14 0 -8 5 -18
11 -22 7 -4 9 0 5 14 -5 16 0 25 19 38 31 20 55 63 55 97 0 19 7 26 31 31 55
11 74 7 84 -16 6 -13 29 -33 51 -45 39 -22 44 -22 77 -8 37 15 77 58 77 82 0
12 13 14 62 11 54 -3 66 0 87 20 36 34 94 30 133 -8 18 -19 40 -30 57 -30 71
0 211 -65 196 -91 -4 -5 7 -21 24 -35 51 -43 39 -128 -23 -158 -22 -11 -26
-16 -12 -16 11 0 28 8 38 17 16 14 21 15 28 4 7 -13 30 -145 46 -271 4 -30 15
-66 25 -79 28 -36 24 -87 -8 -119 -24 -23 -53 -66 -53 -78 0 -2 11 -4 25 -4
43 0 136 -40 146 -64 15 -32 -5 -234 -25 -254 -12 -13 -61 -17 -266 -23 -138
-4 -254 -10 -257 -12 -3 -3 11 -13 31 -21 79 -33 28 -75 -101 -83 -123 -7
-249 19 -261 55 -6 19 33 14 75 -10 32 -20 52 -23 134 -23 67 0 101 4 112 14
24 19 21 28 -14 46 -24 13 -76 17 -245 21 -193 5 -213 4 -208 -10 4 -11 1 -16
-10 -16 -9 0 -16 5 -16 12 0 9 -3 9 -12 0 -7 -7 -22 -12 -35 -12 -13 0 -23 5
-23 12 0 9 -3 9 -12 0 -17 -17 -29 -15 -22 3 5 11 -1 15 -25 15 -23 0 -29 -4
-25 -15 8 -20 -10 -19 -31 2 -14 13 -52 18 -218 25 -111 4 -214 13 -228 19
-14 5 -33 23 -42 39 -23 39 -39 127 -31 173 5 31 13 41 44 57 20 10 58 24 84
31 41 10 46 14 46 40 0 26 -3 29 -34 29 -19 0 -42 7 -50 16 -20 19 -21 58 -2
73 9 8 12 24 9 50 -3 21 0 48 6 60 7 12 14 59 17 104 4 77 19 184 30 216 3 11
12 7 33 -14 16 -15 35 -25 43 -22 9 4 9 6 -3 6 -23 1 -58 43 -65 78 -8 39 16
85 53 102 15 7 42 19 58 27 17 7 53 18 80 24 28 6 58 13 67 16 12 4 21 -4 31
-28 17 -40 51 -72 69 -65 9 4 8 6 -4 6 -29 2 -58 50 -58 96 0 36 5 48 31 69
33 28 73 33 113 15z m-4114 -109 l0 -30 -75 0 -75 0 0 30 0 30 75 0 75 0 0
-30z m0 -130 l0 -30 -75 0 -75 0 0 30 0 30 75 0 75 0 0 -30z m-750 -180 c0
-18 -7 -20 -55 -20 -48 0 -55 2 -55 20 0 18 7 20 55 20 48 0 55 -2 55 -20z
m1080 0 c0 -18 -7 -20 -55 -20 -48 0 -55 2 -55 20 0 18 7 20 55 20 48 0 55 -2
55 -20z m-1270 -100 c0 -17 -7 -20 -40 -20 -33 0 -40 3 -40 20 0 17 7 20 40
20 33 0 40 -3 40 -20z m1080 0 c0 -14 -7 -20 -24 -20 -23 0 -41 22 -29 34 4 3
17 6 30 6 16 0 23 -6 23 -20z m-3217 -35 c25 -26 53 -45 65 -45 11 0 23 -3 25
-7 7 -12 -38 -138 -67 -188 -34 -57 -93 -115 -119 -115 -38 0 -85 86 -102 185
-20 111 -17 126 28 141 21 7 57 27 80 43 23 16 43 30 45 30 1 1 22 -19 45 -44z
m4964 0 c23 -25 51 -45 62 -45 30 0 32 -13 11 -74 -43 -127 -122 -236 -169
-236 -50 0 -111 142 -111 259 0 48 3 61 15 61 22 0 108 45 124 64 8 9 16 16
19 16 3 0 25 -20 49 -45z m-2827 -75 c0 -17 -7 -20 -40 -20 -33 0 -40 3 -40
20 0 17 7 20 40 20 33 0 40 -3 40 -20z m1080 0 c0 -14 -7 -20 -24 -20 -15 0
-26 7 -29 20 -4 17 0 20 24 20 22 0 29 -5 29 -20z m-2903 -45 c81 -3 165 -11
186 -17 l38 -12 -4 -110 c-3 -61 -28 -264 -55 -451 -47 -311 -49 -341 -34
-352 10 -9 55 -13 133 -13 76 0 119 -4 121 -11 2 -6 17 -9 33 -7 30 4 27 8
-22 24 -16 5 -15 8 7 25 42 34 70 40 142 33 l69 -7 -30 -31 c-17 -18 -31 -37
-31 -43 0 -6 -13 -16 -29 -21 -16 -6 -59 -33 -95 -61 -36 -28 -69 -51 -74 -51
-4 0 -23 -13 -42 -30 -19 -16 -40 -29 -47 -30 -6 0 -22 -12 -35 -27 -12 -16
-42 -43 -66 -61 -23 -19 -42 -40 -42 -48 0 -16 -15 -17 -83 -8 -26 4 -44 11
-41 16 3 4 -7 8 -23 8 -15 -1 -102 4 -193 10 -91 6 -201 13 -245 15 -232 13
-256 17 -250 36 3 9 2 20 -3 22 -13 9 -72 -43 -72 -64 0 -24 -49 -26 -115 -4
-25 9 -49 13 -54 10 -5 -3 -7 4 -4 15 8 29 49 59 92 65 20 3 50 10 66 16 17 6
40 12 52 13 25 1 267 169 253 174 -10 4 -14 32 -6 32 2 0 11 3 20 6 11 4 16 1
16 -11 0 -9 5 -13 10 -10 24 15 9 35 -25 35 -40 0 -46 18 -14 38 15 10 19 20
15 36 -8 33 3 38 34 16 23 -16 30 -17 39 -6 13 15 93 556 90 601 -2 18 7 48
23 75 24 39 43 81 78 167 8 19 13 21 39 13 16 -4 96 -11 178 -15z m4978 -1
c86 -4 164 -13 182 -20 l32 -14 -5 -82 c-3 -46 -28 -239 -55 -430 -27 -191
-49 -359 -49 -372 0 -13 7 -27 16 -30 9 -3 67 -6 129 -6 65 0 116 -4 120 -10
3 -5 17 -10 31 -10 13 0 24 5 24 10 0 6 -11 10 -24 10 -42 0 -39 18 8 45 41
24 50 25 121 19 l76 -7 -36 -29 c-19 -16 -33 -34 -29 -39 3 -5 -15 -19 -40
-30 -25 -11 -46 -24 -46 -29 0 -5 -8 -11 -17 -14 -10 -3 -30 -17 -44 -30 -14
-13 -40 -31 -58 -41 -52 -26 -121 -82 -184 -146 l-58 -60 -55 7 c-30 3 -54 10
-54 15 0 5 -12 9 -27 9 -16 -1 -100 4 -188 10 -88 6 -196 13 -240 15 -44 3
-120 8 -168 11 -83 7 -87 8 -87 30 0 13 -2 24 -6 24 -16 0 -74 -58 -74 -74 0
-17 -6 -18 -49 -13 -53 6 -121 31 -120 44 1 20 64 56 106 61 26 3 58 11 72 18
14 7 28 9 31 5 3 -5 63 32 133 82 86 61 123 93 115 98 -10 7 -9 12 4 25 17 17
43 11 32 -8 -4 -7 -2 -8 4 -4 26 16 12 36 -23 36 -40 0 -44 9 -15 35 11 10 20
31 20 47 0 31 11 36 30 13 23 -28 48 -18 54 23 3 20 15 98 26 172 11 74 25
160 30 190 9 56 20 148 24 210 1 19 14 56 30 83 23 39 48 96 71 164 3 8 15 9
42 3 21 -5 106 -12 188 -16z m3825 -349 l0 -335 -270 0 -270 0 0 335 0 335
270 0 270 0 0 -335z m-6980 295 c0 -17 -7 -20 -40 -20 -33 0 -40 3 -40 20 0
17 7 20 40 20 33 0 40 -3 40 -20z m1080 0 c0 -14 -7 -20 -24 -20 -15 0 -26 7
-29 20 -4 17 0 20 24 20 22 0 29 -5 29 -20z m-1080 -103 c0 -20 -4 -22 -40
-19 -31 3 -40 8 -40 23 0 15 7 19 40 19 35 0 40 -3 40 -23z m1080 0 c0 -20 -4
-23 -29 -19 -22 3 -28 8 -24 23 3 12 14 19 29 19 18 0 24 -5 24 -23z m-2570
-6 c0 -21 -23 -45 -33 -34 -4 3 -7 17 -7 30 0 16 6 23 20 23 13 0 20 -7 20
-19z m4960 -6 c0 -18 -5 -25 -20 -25 -20 0 -28 28 -13 43 15 16 33 6 33 -18z
m-2693 -101 c1 -43 2 -112 2 -153 1 -61 4 -72 16 -67 8 3 15 2 15 -1 0 -15
-45 -123 -51 -123 -6 0 -59 114 -59 126 0 3 9 2 20 -1 19 -6 20 -2 20 143 0
82 3 152 7 156 19 18 28 -7 30 -80z m-1757 36 c0 -19 7 -20 278 -22 l277 -3
-277 -2 c-270 -3 -278 -4 -278 -23 0 -25 -11 -25 -62 1 l-42 22 44 23 c56 29
60 29 60 4z m2900 0 c0 -19 7 -20 278 -22 l277 -3 -277 -2 c-270 -3 -278 -4
-278 -23 0 -24 2 -25 -57 1 l-48 21 45 23 c56 30 60 30 60 5z m1843 0 c5 -19
15 -20 279 -22 l273 -3 -273 -2 c-264 -3 -274 -4 -279 -23 -3 -11 -7 -20 -10
-20 -8 0 -83 40 -83 45 0 5 71 44 81 45 4 0 9 -9 12 -20z m-3623 -100 c0 -70
4 -100 13 -103 9 -3 8 -13 -6 -42 l-18 -38 -19 39 c-17 33 -18 39 -5 47 12 6
15 30 15 108 0 64 4 98 10 94 6 -3 10 -50 10 -105z m1200 12 c0 -60 4 -102 11
-109 9 -9 9 -20 -1 -42 -16 -39 -23 -39 -43 3 -14 29 -14 35 -1 40 11 4 14 27
14 106 0 60 4 100 10 100 6 0 10 -39 10 -98z m-2850 28 c0 -5 -2 -10 -4 -10
-3 0 -8 5 -11 10 -3 6 -1 10 4 10 6 0 11 -4 11 -10z m-14 -108 c-12 -11 -15 5
-8 44 l7 39 3 -39 c2 -21 1 -41 -2 -44z m4969 41 c-7 -38 -12 -50 -19 -42 -7
9 7 79 16 79 6 0 8 -14 3 -37z m-3925 -93 c22 -11 40 -22 40 -25 0 -6 -77 -45
-90 -45 -5 0 -10 9 -10 20 0 19 -7 20 -277 22 l-278 3 278 2 c269 3 277 4 277
23 0 25 11 25 60 0z m2900 0 c22 -11 40 -22 40 -25 0 -6 -77 -45 -88 -45 -6 0
-12 9 -15 20 -5 19 -15 20 -279 23 l-273 2 278 3 c270 2 277 3 277 22 0 25 11
25 60 0z m1894 -4 l39 -24 -41 -21 c-51 -26 -62 -26 -62 -1 0 19 -7 20 -282
22 l-283 3 283 2 c274 3 282 4 282 23 0 26 16 25 64 -4z m-5802 -108 c10 -8
18 -34 20 -71 4 -54 3 -58 -16 -55 -18 3 -21 10 -21 58 0 46 -3 55 -17 54 -18
-2 -23 7 -11 19 10 11 28 8 45 -5z m4961 0 c9 -8 20 -37 25 -71 l9 -58 -25 3
c-25 3 -26 5 -23 62 2 56 1 58 -19 53 -17 -4 -19 -3 -9 9 14 17 21 17 42 2z
m-5033 -23 c0 -14 -4 -25 -10 -25 -11 0 -14 33 -3 43 11 11 13 8 13 -18z
m4963 -12 c-3 -7 -9 -13 -14 -13 -11 0 -12 34 -2 43 9 10 22 -13 16 -30z
m2167 7 c23 -14 6 -22 -24 -10 -19 7 -33 7 -47 0 -18 -10 -27 -1 -12 13 9 10
66 8 83 -3z m-5310 -140 l0 -120 -190 0 -190 0 0 120 0 120 190 0 190 0 0
-120z m1085 70 l0 -45 -67 -3 -68 -3 0 51 0 51 68 -3 67 -3 0 -45z m-2895 10
c0 -24 -4 -30 -21 -30 -13 0 -19 5 -15 13 3 6 9 20 12 30 10 27 24 20 24 -13z
m4962 0 c4 -26 1 -30 -19 -30 -23 0 -23 1 -8 30 9 17 17 30 19 30 2 0 6 -13 8
-30z m1638 11 c0 -12 -85 -24 -121 -16 -16 4 -27 11 -23 16 7 12 144 12 144 0z
m146 -4 c4 -4 -17 -7 -47 -7 -30 0 -49 4 -42 8 15 9 80 8 89 -1z m171 -62
c356 -3 559 -7 570 -14 13 -7 -167 -10 -591 -11 l-609 0 19 21 c12 14 25 18
39 14 11 -4 269 -9 572 -10z m-6889 -46 c-2 -6 -8 -10 -13 -10 -5 0 -11 4 -13
10 -2 6 4 11 13 11 9 0 15 -5 13 -11z m4962 -4 c0 -8 -4 -15 -9 -15 -5 0 -11
7 -15 15 -3 9 0 15 9 15 8 0 15 -7 15 -15z m-5010 -9 c0 -16 -18 -31 -27 -22
-8 8 5 36 17 36 5 0 10 -6 10 -14z m4957 -11 c-4 -8 -11 -15 -17 -15 -14 0
-13 27 3 33 16 6 21 1 14 -18z m2693 8 c0 -7 -9 -17 -19 -23 -21 -11 -1416
-15 -1445 -4 -9 3 -16 14 -16 23 0 15 60 16 740 16 574 0 740 -3 740 -12z
m-5105 -208 l0 -190 -289 -3 c-205 -2 -293 1 -302 9 -11 9 -14 51 -14 189 0
97 3 180 7 184 4 4 141 6 303 4 l295 -3 0 -190z m5725 -25 c0 -190 2 -220 15
-220 13 0 12 -6 -5 -40 -11 -22 -23 -40 -25 -40 -3 0 -12 17 -20 37 -14 33
-14 38 0 45 13 8 15 41 15 223 0 137 4 215 10 215 6 0 10 -80 10 -220z m-8230
200 c0 -17 -41 -33 -53 -21 -8 8 -5 11 10 11 12 0 25 5 28 10 8 13 15 13 15 0z
m2808 -17 c-3 -31 -34 -44 -44 -19 -9 24 3 46 26 46 17 0 21 -5 18 -27z m67
-3 c0 -26 -20 -36 -44 -21 -21 14 -4 53 22 49 16 -2 22 -10 22 -28z m2074 -1
c-17 -11 -39 -12 -39 -1 0 11 44 28 49 18 2 -4 -3 -12 -10 -17z m-2199 1 c0
-11 -4 -20 -10 -20 -5 0 -10 9 -10 20 0 11 5 20 10 20 6 0 10 -9 10 -20z
m4360 -50 c0 -5 -5 -10 -11 -10 -5 0 -7 5 -4 10 3 6 8 10 11 10 2 0 4 -4 4
-10z m-510 -18 c0 -5 -10 -8 -22 -8 -19 1 -23 -4 -23 -29 0 -24 5 -31 23 -33
23 -4 21 -22 -3 -22 -36 0 -59 62 -33 88 14 14 58 16 58 4z m550 -2 c0 -5 6
-10 14 -10 8 0 22 -10 30 -22 14 -19 16 -19 22 -5 3 9 10 17 14 17 4 0 0 -20
-9 -45 -17 -49 -31 -58 -31 -21 0 35 -10 56 -26 56 -17 0 -18 -32 -1 -49 10
-10 8 -12 -8 -9 -16 2 -21 12 -23 51 -2 28 1 47 7 47 6 0 11 -4 11 -10z m-472
-22 c17 -17 15 -43 -4 -59 -31 -26 -70 25 -44 56 15 18 32 19 48 3z m120 -33
c2 -22 0 -36 -4 -32 -5 4 -9 18 -9 29 0 12 -6 23 -12 25 -8 3 -13 -5 -13 -21
0 -33 -18 -34 -22 -1 -4 36 -22 32 -29 -7 -6 -32 -6 -32 -8 9 l-1 42 48 -2 47
-2 3 -40z m120 32 c14 -10 16 -53 2 -62 -6 -4 -10 7 -10 24 0 21 -5 31 -15 31
-9 0 -15 -9 -15 -25 0 -14 -4 -25 -9 -25 -5 0 -7 8 -4 18 2 10 -3 24 -11 31
-14 12 -16 10 -16 -17 0 -17 -4 -34 -10 -37 -11 -7 -14 57 -4 68 9 8 75 4 92
-6z m58 -47 c8 0 14 10 14 25 0 14 5 25 10 25 6 0 10 -13 10 -29 0 -21 -6 -30
-22 -34 -27 -8 -48 9 -48 38 0 35 15 40 18 6 2 -19 9 -31 18 -31z m105 25 c7
-30 7 -30 8 -3 2 43 21 44 21 1 0 -32 -3 -39 -20 -39 -15 0 -20 7 -20 27 0 15
-7 29 -15 33 -11 4 -15 -2 -15 -24 0 -16 -4 -32 -10 -35 -6 -4 -10 10 -10 35
0 39 1 41 27 38 22 -2 29 -10 34 -33z m219 -135 c0 -13 7 -20 19 -20 22 0 35
-28 25 -54 -4 -10 -17 -16 -35 -16 -28 0 -29 1 -29 55 0 30 5 55 10 55 6 0 10
-9 10 -20z m99 -28 c20 12 51 5 51 -13 0 -6 -9 -13 -20 -16 -27 -7 -25 -21 3
-26 12 -3 3 -4 -20 -3 l-43 1 2 55 c1 35 3 43 5 23 4 -28 6 -31 22 -21z
m-1019 28 c0 -5 -9 -10 -20 -10 -11 0 -20 -4 -20 -10 0 -5 8 -10 18 -10 16 -1
16 -1 0 -11 -25 -14 -22 -37 5 -42 16 -3 13 -5 -10 -6 -32 -1 -33 0 -33 42 0
24 3 47 7 50 10 11 53 8 53 -3z m461 -6 c9 -12 10 -20 2 -33 -7 -11 -8 -23 -1
-34 6 -11 5 -17 -2 -17 -6 0 -13 7 -16 15 -4 8 -10 15 -15 15 -5 0 -9 -7 -9
-15 0 -8 -4 -15 -10 -15 -11 0 -14 83 -3 93 12 12 40 7 54 -9z m-382 -26 c11
-10 14 -10 18 0 6 17 38 15 53 -3 10 -12 9 -15 -4 -15 -10 0 -14 5 -11 10 3 6
0 10 -7 10 -7 0 -14 -11 -14 -24 -1 -18 4 -26 20 -29 18 -4 17 -4 -4 -6 -15 0
-31 4 -38 11 -9 9 -12 9 -13 -2 -1 -8 -4 -2 -8 14 -9 41 -31 46 -31 7 0 -17
-4 -31 -10 -31 -5 0 -10 16 -10 35 0 30 3 35 23 35 13 0 29 -6 36 -12z m194
-5 c-4 -10 -13 -23 -21 -29 -13 -9 -11 -12 8 -17 20 -5 21 -8 10 -22 -7 -9
-23 -15 -34 -13 -18 3 -20 9 -18 39 2 21 -1 40 -7 44 -7 4 -11 -5 -11 -24 0
-17 -4 -31 -10 -31 -5 0 -10 16 -10 35 l0 35 50 0 c43 0 49 -2 43 -17z m47
-11 c0 -13 5 -12 20 8 24 31 26 13 3 -35 l-17 -35 -13 38 c-15 45 -16 55 -3
47 6 -3 10 -14 10 -23z m225 17 c4 -6 4 -13 0 -17 -4 -4 -10 -1 -12 6 -7 19
-20 14 -26 -9 -4 -14 1 -23 16 -29 l22 -9 -22 0 c-28 -1 -45 27 -32 51 11 20
44 24 54 7z m80 1 c5 -7 11 -8 19 -1 22 18 77 10 85 -13 8 -21 8 -20 15 2 4
12 11 22 16 22 5 0 12 -10 16 -22 l7 -23 10 25 c5 14 11 20 13 14 6 -15 -13
-64 -25 -64 -5 0 -12 10 -16 23 l-8 22 -4 -22 c-6 -31 -29 -29 -37 3 -5 19
-10 23 -19 16 -7 -5 -21 -12 -32 -14 -18 -5 -18 -6 5 -16 22 -9 23 -11 5 -11
-12 -1 -26 4 -33 11 -9 9 -12 9 -12 0 0 -7 -4 -12 -10 -12 -5 0 -10 14 -10 30
0 20 -5 30 -15 30 -10 0 -15 -10 -15 -30 0 -16 -5 -30 -11 -30 -8 0 -8 46 0
68 3 7 51 0 56 -8z m253 -27 c3 -31 1 -33 -27 -33 -35 0 -42 19 -11 27 11 3
20 12 20 20 0 9 -6 13 -15 9 -8 -3 -15 -1 -15 5 0 6 10 9 23 7 17 -2 23 -11
25 -35z m-171 -779 c2 -545 2 -549 23 -552 11 -2 20 -5 20 -8 0 -12 -51 -104
-58 -104 -7 1 -52 90 -52 103 0 4 9 7 20 7 20 0 20 7 20 556 0 440 3 555 13
551 9 -3 12 -124 14 -553z m-4587 451 c0 -30 -4 -55 -10 -55 -5 0 -10 25 -10
55 0 30 5 55 10 55 6 0 10 -25 10 -55z m62 9 c17 0 33 -5 35 -11 3 -8 -4 -13
-16 -13 -25 0 -28 -27 -3 -33 13 -4 12 -5 -5 -6 -12 0 -25 4 -29 10 -4 8 -9 7
-15 -2 -5 -9 -8 9 -7 46 0 33 3 48 5 34 3 -23 9 -27 35 -25z m-777 26 c4 -6
-5 -10 -19 -10 -22 0 -26 -5 -26 -29 0 -17 4 -33 10 -36 15 -10 50 14 50 34 0
20 26 36 35 22 3 -5 -2 -11 -10 -15 -8 -3 -15 -16 -15 -28 0 -19 -6 -23 -32
-25 -17 -1 -38 2 -45 8 -16 14 -17 61 -1 77 15 15 45 16 53 2z m360 0 c4 -6
-5 -10 -19 -10 -22 0 -26 -5 -26 -29 0 -17 4 -32 9 -35 16 -10 39 5 45 29 8
31 34 39 57 19 11 -10 19 -12 19 -6 0 18 57 14 64 -4 9 -24 7 -54 -4 -54 -5 0
-10 14 -10 30 0 20 -5 30 -15 30 -10 0 -15 -10 -15 -30 0 -16 -4 -30 -10 -30
-5 0 -10 8 -10 18 -1 16 -1 16 -11 0 -11 -19 -44 -24 -54 -8 -4 6 -13 5 -25
-3 -40 -24 -81 41 -49 79 13 16 45 19 54 4z m184 -28 c-13 -5 -11 -36 3 -50 9
-9 8 -12 -4 -12 -11 0 -17 12 -20 38 -7 50 0 68 17 45 8 -10 9 -19 4 -21z
m-432 7 c8 -8 17 -8 31 0 12 7 23 7 26 2 4 -5 0 -11 -6 -14 -9 -3 -7 -9 6 -19
23 -18 13 -38 -17 -37 -17 1 -18 2 -4 6 21 6 22 19 1 27 -21 8 -21 8 -27 -14
-6 -22 -36 -27 -55 -8 -16 16 -15 33 4 52 18 19 26 20 41 5z m114 -7 c-9 -3
-8 -9 4 -22 20 -23 12 -40 -18 -39 -17 1 -18 2 -4 6 21 6 22 19 2 27 -8 3 -15
12 -15 20 0 16 20 26 35 18 5 -3 3 -8 -4 -10z m409 8 c23 14 52 -8 48 -38 -2
-21 -9 -28 -31 -30 -23 -3 -28 1 -33 28 -8 37 -28 35 -32 -3 -4 -33 -22 -26
-22 8 0 27 29 49 45 35 6 -5 17 -5 25 0z m226 -12 c-9 -5 -16 -20 -16 -34 0
-15 -4 -23 -10 -19 -6 4 -9 18 -7 31 3 27 25 46 40 37 5 -3 2 -10 -7 -15z
m3850 -29 c-3 -17 -6 -40 -6 -51 0 -17 -2 -18 -15 -8 -10 8 -19 9 -24 4 -5 -5
-93 -139 -196 -299 -104 -159 -229 -353 -279 -430 -51 -77 -130 -200 -176
-272 -47 -73 -89 -133 -94 -133 -4 0 0 12 10 28 254 387 724 1115 724 1121 0
5 -6 12 -12 15 -10 4 -9 7 2 15 8 5 24 17 35 25 30 23 38 19 31 -15z m1821 7
c137 -70 173 -242 76 -356 -50 -58 -104 -83 -178 -83 -221 -1 -315 277 -141
414 64 50 174 61 243 25z m-4167 -28 c0 -21 49 -39 70 -26 14 9 22 9 34 -1 19
-16 12 -31 -15 -31 -10 0 -19 -4 -19 -10 0 -5 7 -10 15 -10 8 0 15 -4 15 -10
0 -14 -24 -12 -38 2 -10 10 -15 10 -22 -2 -7 -11 -10 -7 -10 16 0 19 -6 34
-15 38 -11 4 -15 -2 -15 -24 0 -16 -4 -32 -10 -35 -6 -4 -10 15 -10 49 0 31 5
56 10 56 6 0 10 -6 10 -12z m1180 -41 c0 -47 -2 -53 -22 -54 -12 -1 -28 3 -35
9 -9 7 -13 7 -13 -1 0 -7 -4 -9 -10 -6 -5 3 -10 17 -10 31 0 15 -6 24 -15 24
-10 0 -15 -10 -15 -31 0 -18 -4 -28 -10 -24 -6 4 -7 12 -3 18 3 7 -3 3 -15 -7
-18 -16 -26 -17 -47 -8 -15 7 -27 8 -30 2 -4 -6 -17 -10 -31 -10 -22 0 -24 4
-24 50 0 49 1 50 30 50 26 0 30 -4 30 -27 0 -25 1 -25 18 -10 10 10 22 17 27
17 5 0 17 -7 27 -17 17 -15 18 -15 18 0 0 23 46 22 55 0 6 -17 7 -17 16 0 6 9
19 17 29 17 11 0 20 7 20 15 0 8 2 15 5 15 3 0 5 -24 5 -53z m-6465 18 c0 -13
-8 -21 -22 -23 -28 -4 -31 -32 -3 -32 11 0 20 7 20 16 0 8 4 13 9 10 5 -3 12
4 16 17 7 19 9 16 12 -17 5 -41 -3 -59 -16 -37 -6 9 -11 10 -15 2 -4 -6 -18
-11 -32 -11 -22 0 -24 4 -24 51 0 49 1 50 28 47 19 -2 27 -9 27 -23z m488 18
c-29 -5 -29 -19 -2 -33 27 -15 22 -54 -8 -58 -13 -2 -23 1 -23 7 0 6 7 11 15
11 21 0 19 12 -5 33 -26 22 -16 47 19 46 23 -2 24 -2 4 -6z m308 0 c1 -5 2
-27 3 -51 2 -46 -17 -54 -22 -9 -4 37 -22 34 -22 -3 0 -16 -4 -30 -10 -30 -5
0 -10 16 -10 36 0 27 5 37 20 41 11 3 20 9 20 14 0 11 20 12 21 2z m129 -1 c0
-5 -10 -8 -22 -8 -19 1 -23 -4 -23 -29 0 -43 36 -47 52 -5 11 30 45 42 58 20
4 -6 13 -5 25 3 29 17 54 -2 58 -44 4 -38 -14 -30 -20 9 -5 34 -22 28 -28 -10
-3 -21 -8 -29 -13 -21 -6 10 -12 10 -27 0 -16 -9 -24 -9 -40 0 -12 8 -21 9
-25 3 -3 -6 -15 -10 -25 -10 -34 0 -53 63 -28 88 14 14 58 16 58 4z m185 -52
c2 -58 -19 -44 -23 16 -3 39 -1 47 9 36 7 -6 14 -30 14 -52z m237 22 c-14 -4
-16 -42 -2 -42 6 0 10 -5 10 -11 0 -24 -25 0 -31 31 -10 47 -2 64 19 43 12
-12 13 -18 4 -21z m3831 31 c-26 -5 -31 -23 -8 -23 8 0 15 -4 15 -10 0 -5 -7
-10 -15 -10 -8 0 -15 -7 -15 -15 0 -8 9 -15 20 -15 11 0 20 -5 20 -11 0 -6
-12 -9 -27 -7 -25 3 -28 7 -29 43 -1 51 2 55 34 54 24 -2 24 -2 5 -6z m58 0
c6 -47 3 -93 -5 -90 -15 5 -20 97 -7 97 6 0 11 -3 12 -7z m569 -4 l-25 -10 24
-18 c28 -22 25 -55 -7 -59 -12 -2 -22 1 -22 7 0 6 9 11 20 11 11 0 20 4 20 9
0 5 -9 13 -20 16 -13 4 -20 15 -20 31 0 20 5 24 28 23 l27 0 -25 -10z m314 -1
c10 -10 11 -17 2 -30 -8 -14 -8 -23 2 -39 12 -18 11 -20 -5 -17 -11 2 -19 14
-21 31 -4 37 -22 35 -22 -3 0 -16 -4 -30 -10 -30 -5 0 -10 16 -10 36 0 27 5
37 20 41 11 3 20 9 20 14 0 12 8 11 24 -3z m-6006 -35 c4 -24 10 -27 36 -17
20 8 21 24 1 24 -8 0 -15 5 -15 11 0 6 10 9 23 7 18 -2 22 -9 22 -38 0 -34 -1
-35 -37 -35 -35 -1 -38 2 -38 26 0 15 -7 29 -15 33 -11 4 -15 -2 -15 -24 0
-16 -4 -32 -10 -35 -6 -4 -10 10 -10 35 0 39 1 41 28 38 19 -2 28 -9 30 -25z
m150 15 c9 -9 15 -9 24 0 15 15 38 16 38 2 0 -5 -6 -10 -14 -10 -23 0 -29 -31
-6 -37 11 -3 20 -9 20 -14 0 -14 -38 -11 -43 4 -4 9 -8 8 -16 -3 -9 -12 -11
-10 -11 11 0 15 -7 32 -15 39 -12 10 -15 7 -20 -17 -11 -48 -13 -49 -14 -5 -1
37 1 42 22 42 13 0 28 -5 35 -12z m130 0 c19 -19 14 -28 -13 -28 -14 0 -25 -4
-25 -10 0 -5 9 -10 20 -10 11 0 20 -4 20 -10 0 -14 -33 -13 -48 2 -22 22 -7
68 23 68 6 0 16 -5 23 -12z m230 -1 c14 -10 16 -53 2 -62 -6 -4 -10 7 -10 24
0 21 -5 31 -15 31 -10 0 -15 -10 -15 -31 0 -17 -4 -28 -10 -24 -5 3 -10 17
-10 31 0 13 -4 24 -10 24 -5 0 -10 -13 -10 -30 0 -16 -4 -30 -10 -30 -5 0 -10
18 -10 40 l0 40 43 -3 c23 -1 48 -6 55 -10z m80 -30 c3 -37 2 -38 -24 -35 -34
4 -43 24 -15 33 25 7 28 25 5 25 -8 0 -12 5 -9 11 15 23 40 4 43 -34z m472 34
c0 -5 -6 -11 -14 -14 -8 -3 -16 -18 -19 -34 -3 -24 -4 -23 -6 8 0 20 2 39 6
42 9 10 33 8 33 -2z m58 -34 c3 -34 1 -37 -22 -37 -31 0 -36 29 -6 37 26 7 26
23 -1 23 -11 0 -17 4 -14 11 15 23 40 4 43 -34z m72 34 c0 -5 -9 -11 -20 -14
-11 -3 -20 -10 -20 -17 0 -7 9 -14 20 -17 27 -7 25 -25 -2 -21 -26 3 -36 41
-18 64 14 15 40 19 40 5z m4137 -8 c-8 -10 -17 -29 -20 -43 -3 -16 -5 -10 -6
18 -1 37 2 42 21 42 19 0 20 -1 5 -17z m71 5 c19 -19 14 -28 -13 -28 -14 0
-25 -4 -25 -10 0 -5 9 -10 20 -10 11 0 20 -4 20 -10 0 -18 -39 -10 -50 10 -20
38 19 77 48 48z m42 -24 c0 -15 6 -24 15 -24 10 0 15 10 15 32 0 23 3 29 11
21 6 -6 9 -23 7 -39 -3 -25 -7 -29 -33 -29 -28 0 -30 3 -33 39 -2 25 0 36 7
31 6 -3 11 -17 11 -31z m166 -9 c1 -33 1 -34 -3 -7 -6 42 -33 44 -33 1 0 -17
-4 -28 -10 -24 -5 3 -10 17 -10 30 0 13 -4 27 -10 30 -6 4 -10 -6 -10 -24 0
-16 -4 -33 -10 -36 -6 -4 -10 10 -10 35 l0 40 48 -3 47 -3 1 -39z m222 32 c14
-10 16 -53 2 -62 -6 -4 -10 7 -10 25 0 21 -4 30 -12 27 -7 -2 -13 -13 -13 -25
-1 -28 -19 -28 -20 0 0 12 -6 23 -12 25 -9 3 -13 -6 -13 -26 0 -17 -4 -31 -10
-31 -11 0 -14 63 -4 73 9 8 75 4 92 -6z m80 -30 c3 -34 1 -37 -22 -37 -33 0
-42 16 -16 32 24 15 26 28 4 28 -8 0 -12 5 -9 11 15 23 40 4 43 -34z m-2378
-199 c0 -5 -9 -8 -20 -8 -20 0 -20 -7 -20 -301 0 -197 -3 -298 -10 -294 -6 4
-10 115 -10 301 0 287 0 294 -20 294 -26 0 -25 4 6 58 l27 45 23 -44 c13 -24
23 -47 24 -51z m-460 -698 c11 0 20 -4 20 -10 0 -14 -43 -100 -50 -100 -7 0
-50 86 -50 100 0 6 9 10 20 10 20 0 20 7 20 353 0 195 3 357 8 361 4 4 8 -155
10 -353 2 -353 3 -361 22 -361z m3070 -17 c25 -7 25 -5 -1 -55 l-21 -41 -24
39 c-29 48 -29 54 -4 54 20 0 20 7 22 368 l3 367 2 -363 c3 -354 4 -364 23
-369z m-5530 17 c11 0 20 -4 20 -10 0 -14 -43 -100 -50 -100 -7 0 -50 86 -50
100 0 6 9 10 20 10 20 0 20 7 20 288 0 159 3 292 8 296 4 4 8 -125 10 -288 2
-288 3 -296 22 -296z m8640 50 c0 -358 0 -360 21 -360 11 0 19 -4 17 -8 -1 -4
-12 -29 -23 -55 -11 -26 -23 -47 -27 -47 -6 0 -58 94 -58 105 0 2 10 5 23 7
l22 3 3 358 c1 226 6 357 12 357 6 0 10 -130 10 -360z m-5358 -1 c205 -42 378
-220 423 -434 18 -88 19 -152 0 -238 l-14 -68 52 -51 c52 -51 52 -51 27 -59
-59 -17 -98 -10 -147 28 -27 20 -47 41 -46 47 1 6 12 38 23 70 60 168 23 338
-103 473 -195 208 -487 213 -688 12 -50 -50 -100 -133 -123 -202 -6 -18 -8
-18 -39 3 -138 92 -269 91 -375 -5 -61 -55 -84 -108 -81 -184 l3 -56 -61 -6
c-147 -14 -270 -128 -302 -279 -6 -33 -9 -35 -46 -35 l-40 0 1 51 c1 33 12 74
28 110 53 115 131 183 257 224 64 20 67 23 73 58 31 190 244 320 441 269 33
-8 66 -17 74 -19 8 -2 30 21 52 53 73 109 190 195 314 230 70 20 219 24 297 8z
m4811 -295 c34 -31 90 -84 123 -118 128 -128 370 -363 401 -387 17 -15 51 -29
75 -33 65 -11 123 -50 155 -104 l28 -47 1 -368 2 -368 51 -75 c28 -42 54 -88
58 -102 9 -39 -16 -75 -65 -92 -39 -14 -42 -17 -44 -55 l-1 -40 -4 38 c-3 21
1 44 7 51 7 9 7 21 1 37 -7 18 -10 19 -10 7 -1 -10 -5 -18 -11 -18 -5 0 -7 -7
-4 -15 5 -11 -1 -15 -19 -15 -13 0 -30 7 -37 15 -16 19 -44 19 -60 0 -7 -8
-23 -15 -36 -15 -21 0 -24 -5 -26 -42 l-1 -43 -4 43 c-3 34 -8 42 -24 42 -15
0 -19 -8 -21 -42 l-1 -43 -4 43 c-4 36 -7 42 -28 42 -13 0 -26 -6 -29 -12 -3
-7 -3 -3 0 9 4 18 1 20 -16 16 -11 -3 -20 0 -20 6 0 16 -31 13 -51 -5 -13 -11
-35 -16 -76 -14 -32 1 -69 1 -82 1 -14 -1 -28 5 -33 11 -6 10 -8 10 -8 1 0 -9
-15 -13 -43 -13 -35 0 -58 -10 -139 -65 -54 -36 -100 -65 -104 -65 -9 0 -132
88 -139 100 -3 6 21 -6 54 -25 32 -19 62 -35 65 -35 3 0 6 20 6 45 l0 44 -77
3 -78 3 -3 73 c-4 88 0 89 98 26 39 -25 74 -44 76 -41 6 5 -76 67 -88 67 -4 0
-8 5 -8 10 0 7 38 10 106 9 95 -1 108 1 127 19 17 17 18 23 7 36 -16 20 -1 20
28 0 12 -8 22 -24 22 -35 0 -20 4 -21 208 -17 178 3 212 6 242 22 49 26 78 55
103 101 21 39 22 51 22 385 0 336 -1 346 -22 386 -31 58 -83 100 -148 119 -50
14 -126 16 -668 13 l-612 -3 31 65 c17 36 51 112 75 168 48 114 71 143 123
159 28 9 45 7 92 -9 l59 -20 106 111 107 111 61 0 c60 0 62 -1 124 -56z
m-10396 13 c18 -7 94 -72 170 -146 76 -74 204 -199 284 -277 96 -94 155 -145
175 -149 86 -20 107 -29 141 -58 73 -64 74 -73 72 -471 l-1 -354 40 -54 c77
-104 89 -149 50 -186 -24 -21 -80 -41 -77 -26 1 5 -2 20 -8 34 l-10 25 -7 -33
c-8 -36 -14 -37 -63 -20 -27 10 -38 10 -53 0 -11 -7 -31 -12 -45 -12 -22 0
-25 -4 -27 -42 l-1 -43 -4 43 c-3 34 -8 42 -24 42 -15 0 -19 -8 -21 -42 l-1
-43 -4 44 c-4 41 -5 43 -33 39 -21 -3 -27 -1 -20 7 6 7 -4 10 -33 7 -199 -14
-237 -14 -238 5 -1 17 -2 17 -6 1 -3 -13 -15 -18 -44 -18 -32 0 -57 -12 -130
-60 -49 -34 -96 -63 -104 -66 -12 -5 -125 70 -125 83 0 3 21 -7 46 -21 26 -14
50 -26 55 -26 5 0 9 20 9 45 l0 44 -82 3 -83 3 -3 64 c-5 97 2 98 120 20 32
-21 60 -34 63 -28 4 5 0 9 -9 9 -8 0 -16 4 -18 8 -1 4 -18 18 -36 31 -18 12
-29 27 -26 33 4 6 43 9 98 6 76 -2 97 0 120 15 27 18 27 19 9 39 l-18 21 33
-17 c20 -10 32 -24 32 -36 0 -19 7 -20 193 -20 105 0 209 5 231 11 55 15 120
84 134 141 16 64 16 632 0 695 -7 30 -25 61 -52 88 -73 77 -66 76 -758 73
l-605 -3 28 65 c116 271 123 284 171 309 l45 25 61 -21 61 -21 93 95 c131 135
158 148 235 120z m4828 -397 c8 0 19 8 24 18 8 14 10 9 11 -22 0 -37 -1 -39
-15 -20 -15 19 -15 19 -30 0 -14 -19 -15 -17 -14 20 1 21 3 31 6 22 2 -10 11
-18 18 -18z m91 -10 c-11 -27 -15 -30 -18 -15 -2 11 4 27 12 36 21 22 22 17 6
-21z m76 10 c5 -31 -7 -50 -29 -50 -8 0 -13 14 -13 40 0 33 4 40 19 40 13 0
20 -9 23 -30z m73 20 c4 -6 2 -17 -4 -24 -6 -7 -9 -22 -5 -32 4 -14 3 -16 -4
-5 -5 7 -15 10 -21 7 -7 -5 -11 5 -11 28 0 29 4 36 19 36 11 0 23 -5 26 -10z
m22 -42 c-2 -13 -4 -5 -4 17 -1 22 1 32 4 23 2 -10 2 -28 0 -40z m91 24 c4
-28 -14 -52 -39 -52 -16 0 -19 8 -19 41 0 38 1 40 28 37 19 -2 28 -9 30 -26z
m78 12 c-9 -8 -16 -19 -16 -23 0 -17 30 -33 47 -27 14 6 15 4 7 -4 -16 -16
-52 -3 -59 21 -7 20 9 49 27 49 5 0 2 -7 -6 -16z m97 -53 c10 -11 9 -13 -3 -9
-10 3 -15 19 -16 44 -1 29 -1 32 3 9 3 -16 10 -36 16 -44z m45 49 c-10 -16
-10 -23 4 -36 32 -33 67 12 36 45 -11 11 -10 13 2 9 21 -6 19 -58 -2 -72 -35
-22 -74 27 -48 59 18 21 22 18 8 -5z m128 -48 c-12 -12 -19 -13 -27 -5 -8 8
-6 11 7 10 15 -2 20 6 23 33 5 34 5 34 9 6 2 -17 -3 -35 -12 -44z m90 42 c4
-17 1 -31 -9 -41 -24 -24 -47 -9 -47 32 0 31 3 35 25 35 18 0 26 -7 31 -26z
m2335 11 c206 -44 366 -196 419 -400 14 -56 12 -190 -4 -250 -46 -174 -181
-317 -354 -377 -52 -17 -88 -23 -162 -22 -154 0 -265 48 -380 164 -263 264
-167 715 182 857 108 44 188 51 299 28z m-5511 -30 c275 -93 425 -392 334
-663 -33 -99 -71 -157 -147 -228 -204 -189 -511 -188 -716 2 -111 102 -171
236 -171 381 0 370 353 626 700 508z m3047 3 c-3 -7 -5 -2 -5 12 0 14 2 19 5
13 2 -7 2 -19 0 -25z m-665 -163 c26 -25 55 -45 67 -45 26 0 26 -5 -2 -83 -31
-84 -69 -148 -116 -195 -50 -49 -54 -95 -12 -152 16 -22 32 -37 35 -32 5 9 15
81 20 155 2 27 11 56 21 67 10 11 33 57 51 102 26 63 38 82 51 81 10 -1 97 -8
193 -14 105 -6 185 -16 201 -24 25 -13 26 -16 22 -92 -2 -43 -8 -108 -13 -145
-6 -37 -10 -79 -10 -94 0 -26 2 -25 30 19 16 26 34 47 40 47 9 0 7 -45 -4
-124 0 -5 4 -10 11 -13 7 -2 11 9 11 31 0 78 29 148 64 156 16 4 32 24 50 62
39 81 95 113 198 113 l75 1 52 52 c72 72 127 95 228 96 95 1 166 -27 229 -90
63 -63 90 -133 91 -235 1 -76 4 -89 27 -120 36 -46 48 -81 48 -138 0 -92 -63
-176 -151 -201 -19 -6 -201 -10 -424 -10 -394 0 -443 4 -477 38 -17 17 -31 15
-24 -3 4 -11 -2 -15 -20 -15 -14 0 -24 3 -22 8 2 4 16 33 31 65 28 60 46 70
79 40 22 -20 24 -1 2 22 -10 10 -29 15 -48 13 -28 -3 -31 -7 -34 -40 -6 -67
-36 -40 -62 55 -17 61 -17 61 -23 27 -20 -116 -58 -423 -54 -434 4 -10 42 -15
136 -21 72 -4 131 -11 131 -16 0 -5 11 -9 25 -9 35 0 31 18 -6 28 l-31 8 39
27 c34 24 49 27 116 27 42 0 77 -3 77 -6 0 -4 -13 -22 -30 -41 -16 -18 -30
-38 -30 -42 0 -5 -12 -12 -27 -16 -16 -3 -39 -17 -53 -30 -14 -12 -73 -55
-132 -95 -60 -39 -114 -79 -120 -89 -7 -9 -28 -28 -47 -42 -18 -13 -37 -34
-42 -46 -7 -20 -13 -22 -61 -16 -29 3 -58 9 -63 14 -17 13 -521 49 -686 49
-24 0 -29 4 -29 25 0 14 -3 25 -7 25 -18 0 -73 -54 -73 -71 0 -15 -5 -19 -17
-15 -10 2 -43 8 -73 12 -42 5 -50 9 -35 15 16 6 14 8 -13 8 -22 1 -32 5 -30
14 8 23 71 57 105 57 19 0 47 7 64 15 16 9 34 13 39 10 5 -3 65 34 134 82 68
48 120 91 115 94 -13 8 0 39 16 39 7 0 15 -5 17 -11 2 -7 9 -5 17 5 12 14 9
16 -22 16 -44 0 -56 17 -28 36 13 10 21 26 21 45 0 32 11 37 30 14 14 -17 36
-20 45 -5 8 13 36 182 31 187 -1 2 -25 -9 -52 -24 l-49 -28 -413 3 c-460 3
-465 4 -523 70 -43 49 -62 97 -62 162 0 99 47 173 136 215 40 19 53 32 72 73
40 86 122 127 227 115 47 -6 49 -5 89 41 72 82 190 125 288 106 41 -8 88 -25
134 -48 4 -2 7 8 7 22 0 21 6 28 28 32 15 3 50 21 77 39 28 19 53 34 56 34 4
1 27 -19 51 -44z m5278 -240 l0 -75 -185 0 -185 0 -40 36 c-43 39 -48 58 -24
92 15 22 19 22 225 22 l209 0 0 -75z m320 68 c0 -10 -113 -83 -128 -83 -15 0
-131 73 -132 83 0 4 59 7 130 7 72 0 130 -3 130 -7z m443 -28 c42 -38 47 -65
17 -95 -19 -19 -33 -20 -205 -20 l-185 0 0 75 0 75 168 0 167 0 38 -35z m-658
-27 c84 -59 98 -88 41 -88 -19 0 -36 6 -39 13 -3 9 -7 9 -20 -1 -9 -7 -28 -12
-44 -10 -27 3 -28 5 -31 71 -2 42 1 67 8 67 5 0 44 -23 85 -52z m-10427 -35
l3 -73 -189 0 -190 0 -35 39 c-36 40 -40 68 -13 90 12 10 173 18 341 17 l80
-1 3 -72z m316 68 c3 -5 -24 -28 -61 -51 -53 -35 -69 -41 -82 -32 -9 6 -40 26
-69 43 -39 23 -50 34 -40 40 17 11 245 12 252 0z m399 -2 c31 -17 77 -66 77
-83 0 -7 -9 -24 -19 -37 -18 -22 -28 -24 -133 -27 -62 -2 -145 -1 -185 3 l-73
7 0 67 c0 37 3 71 7 74 11 12 303 8 326 -4z m9977 -54 c0 -65 0 -65 -28 -65
-15 0 -33 5 -40 12 -8 8 -15 8 -26 -1 -18 -15 -68 -11 -73 6 -4 12 132 111
155 112 8 1 12 -18 12 -64z m-10585 -5 c90 -61 99 -86 27 -77 -26 3 -54 2 -61
-2 -7 -4 -23 -6 -37 -3 -22 4 -24 8 -24 68 0 38 4 64 10 64 6 0 44 -23 85 -50z
m255 -14 c0 -54 -3 -64 -19 -69 -10 -2 -25 -1 -32 4 -7 4 -35 5 -61 2 -71 -9
-63 16 25 76 39 28 75 50 80 50 4 1 7 -28 7 -63z m5324 -3 c8 -19 -17 -48 -33
-39 -15 10 -14 43 2 49 21 9 25 8 31 -10z m-4444 -33 c0 -19 7 -20 278 -22
l277 -3 -277 -2 c-270 -3 -278 -4 -278 -23 0 -11 -5 -20 -10 -20 -13 0 -90 39
-90 45 0 7 73 44 88 45 6 0 12 -9 12 -20z m2103 0 c5 -19 15 -20 279 -22 l273
-3 -273 -2 c-264 -3 -274 -4 -279 -23 -3 -11 -7 -20 -10 -20 -8 0 -83 40 -83
45 0 5 71 44 81 45 4 0 9 -9 12 -20z m3477 0 c0 -19 7 -20 278 -22 l277 -3
-277 -2 c-270 -3 -278 -4 -278 -23 0 -11 -5 -20 -10 -20 -13 0 -90 39 -90 45
0 7 73 44 88 45 6 0 12 -9 12 -20z m2150 0 c0 -19 7 -20 278 -22 l277 -3 -273
-2 c-265 -3 -274 -4 -279 -23 -6 -22 -22 -21 -77 8 l-30 15 45 23 c55 29 59
29 59 4z m1627 -215 c66 -44 86 -156 37 -215 -51 -60 -122 -76 -190 -44 -147
70 -82 296 80 279 27 -2 59 -11 73 -20z m-10329 -35 l63 -40 -3 -77 -3 -77
-67 -39 -67 -38 -66 36 c-73 41 -78 51 -73 140 l3 58 60 38 c33 21 67 38 75
38 8 1 43 -17 78 -39z m10853 19 c28 -20 29 -22 29 -114 l0 -94 -90 -61 c-50
-33 -97 -63 -105 -66 -16 -6 -115 61 -115 78 0 5 20 -2 44 -16 l44 -26 8 67
c4 44 3 73 -5 85 -15 24 -14 29 4 22 15 -6 165 92 165 109 0 5 -8 16 -17 23
-30 23 6 16 38 -7z m-11471 6 c0 -2 -10 -9 -22 -15 -22 -11 -22 -10 -4 4 21
17 26 19 26 11z m1162 -131 c2 -53 1 -99 -2 -103 -5 -8 -103 -74 -161 -109
l-36 -22 -58 42 c-61 43 -63 65 -4 29 19 -12 37 -21 40 -21 4 0 9 30 11 68 4
52 2 71 -11 86 -15 18 -15 18 6 12 15 -5 39 5 90 40 93 64 90 60 62 90 l-24
26 42 -21 42 -21 3 -96z m9115 125 c-10 -6 -22 -20 -27 -32 -8 -19 -9 -20 -9
-3 -1 19 25 45 44 45 6 0 2 -4 -8 -10z m-10332 -38 c-3 -6 -11 -11 -17 -11 -6
0 -6 6 2 15 14 17 26 13 15 -4z m6055 -296 c0 -8 -4 -15 -9 -15 -13 0 -22 16
-14 24 11 11 23 6 23 -9z m4092 -40 c69 -78 73 -79 338 -85 l235 -5 0 -70 0
-70 -352 0 -351 0 -26 24 c-31 29 -33 63 -8 112 22 43 101 139 115 139 5 0 27
-20 49 -45z m-10238 -78 c39 -21 53 -22 261 -22 l220 0 8 -59 c5 -32 6 -65 3
-73 -5 -12 -60 -13 -355 -11 -327 3 -350 4 -370 22 -45 41 -16 125 78 225 l32
35 41 -47 c22 -26 59 -58 82 -70z m6096 98 c0 -8 -7 -15 -15 -15 -16 0 -20 12
-8 23 11 12 23 8 23 -8z m40 -40 c-7 -8 -22 -15 -34 -15 -20 1 -20 2 4 15 33
19 46 19 30 0z m-2870 -125 c0 -5 -5 -10 -11 -10 -5 0 -7 5 -4 10 3 6 8 10 11
10 2 0 4 -4 4 -10z m-100 -19 c0 -4 -10 -7 -22 -7 -19 1 -23 -4 -23 -29 0 -43
36 -47 52 -5 11 30 45 42 58 20 5 -8 11 -7 21 1 12 10 14 4 14 -31 0 -34 -3
-40 -13 -31 -10 8 -17 7 -25 -1 -9 -9 -18 -9 -36 0 -16 7 -28 8 -31 2 -17 -28
-65 6 -65 45 0 27 35 56 56 48 8 -3 14 -8 14 -12z m-336 -38 c20 -59 20 -60
-5 -37 -16 15 -24 16 -39 6 -29 -18 -30 -16 -13 33 8 25 21 45 28 45 7 0 20
-21 29 -47z m5846 21 c0 -23 2 -25 16 -13 15 12 16 11 10 -9 -5 -14 -3 -29 5
-38 6 -8 9 -17 5 -21 -3 -4 -13 2 -21 13 -13 17 -14 17 -15 2 0 -20 -20 -25
-20 -6 0 9 -3 9 -12 0 -28 -28 -77 4 -62 42 8 21 42 30 59 16 13 -10 15 -8 15
14 0 14 5 26 10 26 6 0 10 -12 10 -26z m-395 -24 c1 -19 4 -41 8 -48 14 -22
-10 -13 -26 11 -13 18 -16 19 -16 5 -1 -9 -5 -20 -11 -23 -6 -4 -10 13 -10 45
0 50 1 51 28 48 24 -3 27 -7 27 -38z m197 2 c-15 -5 -16 -34 0 -50 9 -9 8 -12
-4 -12 -18 0 -28 20 -28 59 0 36 9 44 29 24 11 -12 13 -17 3 -21z m95 27 c-13
-8 -18 -20 -16 -42 2 -18 -1 -32 -6 -32 -5 0 -8 14 -6 32 2 22 -3 34 -16 42
-15 9 -11 10 22 10 33 0 37 -1 22 -10z m-5603 -32 c7 -19 6 -31 -2 -39 -9 -9
-12 -5 -12 20 0 22 -5 32 -15 32 -9 0 -15 -9 -15 -25 0 -14 -4 -25 -10 -25 -5
0 -10 11 -10 24 0 14 -4 28 -10 31 -6 4 -10 -6 -10 -24 0 -16 -4 -33 -10 -36
-6 -4 -10 10 -10 35 l0 40 47 -2 c42 -3 49 -6 57 -31z m75 20 c13 -16 5 -27
-21 -27 -26 0 -22 -18 5 -23 19 -3 20 -4 4 -11 -34 -16 -63 34 -35 62 16 16
33 15 47 -1z m299 1 c14 -14 16 -58 3 -58 -5 0 -11 12 -13 27 -4 39 -28 42
-28 4 0 -17 -4 -31 -10 -31 -5 0 -10 16 -10 35 0 30 3 35 23 35 13 0 28 -5 35
-12z m5020 -10 c19 -19 14 -28 -13 -28 -14 0 -25 -4 -25 -10 0 -5 9 -10 20
-10 11 0 20 -4 20 -10 0 -14 -33 -13 -48 2 -22 22 -7 68 23 68 6 0 16 -5 23
-12z m62 3 c0 -5 -6 -12 -12 -15 -10 -3 -8 -8 4 -16 22 -14 12 -40 -15 -40
-20 0 -20 1 -2 14 18 13 18 14 0 23 -11 7 -16 17 -12 27 7 17 37 23 37 7z
m348 -3 c19 -19 14 -28 -13 -28 -14 0 -25 -4 -25 -10 0 -5 9 -10 20 -10 11 0
20 -4 20 -10 0 -14 -33 -13 -48 2 -22 22 -7 68 23 68 6 0 16 -5 23 -12z m90
-1 c14 -11 16 -67 2 -67 -5 0 -10 14 -10 30 0 20 -5 30 -15 30 -10 0 -15 -10
-15 -30 0 -16 -4 -30 -10 -30 -10 0 -14 62 -5 72 9 8 39 6 53 -5z m2932 -27
c0 -5 -5 -10 -11 -10 -5 0 -7 5 -4 10 3 6 8 10 11 10 2 0 4 -4 4 -10z m-10587
-17 c-7 -2 -19 -2 -25 0 -7 3 -2 5 12 5 14 0 19 -2 13 -5z m260 0 c-7 -2 -19
-2 -25 0 -7 3 -2 5 12 5 14 0 19 -2 13 -5z m84 -65 c-2 -13 -4 -3 -4 22 0 25
2 35 4 23 2 -13 2 -33 0 -45z m10290 48 c4 -3 -17 -6 -46 -6 -49 0 -52 -1 -46
-22 5 -18 4 -20 -4 -8 -24 34 -13 45 39 44 28 -1 54 -4 57 -8z m-10427 -24 c0
-10 6 -24 13 -32 6 -8 2 -6 -10 4 -24 20 -31 46 -13 46 6 0 10 -8 10 -18z
m9920 -12 c0 -11 -2 -20 -4 -20 -2 0 -6 9 -9 20 -3 11 -1 20 4 20 5 0 9 -9 9
-20z m80 6 c0 -8 -4 -18 -10 -21 -5 -3 -10 3 -10 14 0 12 5 21 10 21 6 0 10
-6 10 -14z m170 -1 c0 -8 -4 -15 -10 -15 -5 0 -7 7 -4 15 4 8 8 15 10 15 2 0
4 -7 4 -15z m-10578 -17 c-2 -10 -8 -15 -13 -12 -14 8 -11 31 5 31 8 0 11 -8
8 -19z m78 8 c0 -8 -4 -18 -10 -21 -5 -3 -10 3 -10 14 0 12 5 21 10 21 6 0 10
-6 10 -14z m10444 -6 c10 0 17 -3 13 -6 -10 -10 -57 5 -57 18 0 9 3 9 12 0 7
-7 21 -12 32 -12z m279 -7 c-7 -2 -21 -2 -30 0 -10 3 -4 5 12 5 17 0 24 -2 18
-5z m-6828 -443 c-3 -5 -13 -10 -21 -10 -20 0 -17 -20 4 -21 16 -1 16 -2 0 -6
-26 -7 -22 -41 5 -46 16 -3 13 -5 -10 -6 l-33 -1 0 50 c0 49 1 50 31 50 17 0
28 -4 24 -10z m92 -20 c17 -34 -3 -64 -46 -68 -31 -3 -31 -3 -31 41 0 24 3 47
7 51 15 15 58 0 70 -24z m84 -7 c17 -55 19 -57 36 -33 11 16 12 25 4 33 -6 6
-11 18 -11 26 1 13 4 12 15 -3 15 -20 15 -20 30 0 11 15 14 16 15 4 0 -9 -5
-21 -11 -27 -8 -8 -6 -18 6 -37 10 -14 13 -26 7 -26 -6 0 -15 8 -21 18 -9 16
-11 16 -24 -3 -14 -18 -17 -18 -42 -5 -21 11 -30 12 -45 2 -30 -18 -30 -16 -8
38 11 28 24 50 29 50 4 0 13 -17 20 -37z m189 27 c0 -5 -7 -10 -15 -10 -21 0
-19 -9 6 -28 26 -22 16 -52 -17 -52 -13 0 -24 4 -24 9 0 5 9 7 20 4 14 -4 20
0 20 10 0 9 -9 19 -20 22 -19 6 -27 35 -13 48 10 11 43 8 43 -3z m410 0 c0 -5
-9 -10 -20 -10 -11 0 -23 -7 -27 -16 -8 -21 10 -49 31 -48 9 1 16 -2 16 -7 0
-5 -11 -9 -25 -9 -37 0 -54 40 -31 75 16 24 56 35 56 15z m-109 -28 c-15 -5
-14 -35 1 -50 9 -9 8 -12 -4 -12 -11 0 -18 10 -20 28 -2 16 -9 27 -18 27 -9 0
-16 -11 -18 -27 -5 -40 -22 -34 -22 7 0 30 3 35 24 35 14 0 28 5 31 10 5 8 12
7 22 -2 10 -8 11 -14 4 -16z m310 0 c-15 -5 -14 -35 1 -50 9 -9 8 -12 -4 -12
-11 0 -17 12 -21 38 -5 46 0 57 20 40 10 -8 11 -14 4 -16z m235 13 c9 -8 11
-15 5 -15 -15 0 -14 -47 2 -54 6 -3 3 -5 -8 -3 -14 1 -21 11 -23 30 -2 19 -9
27 -23 27 -28 0 -37 -30 -14 -46 15 -12 16 -14 3 -14 -23 0 -41 26 -33 50 4
14 15 20 36 20 16 0 29 5 29 10 0 14 9 12 26 -5z m-718 -42 c2 -19 -1 -33 -7
-33 -6 0 -11 14 -11 30 0 17 -4 30 -10 30 -5 0 -10 -13 -10 -30 0 -16 -4 -30
-10 -30 -5 0 -10 14 -10 30 0 42 -27 40 -33 -2 -4 -32 -4 -32 -5 5 l-2 38 48
-3 c45 -3 47 -4 50 -35z m78 13 c8 -32 -2 -46 -32 -46 -24 0 -32 14 -14 25 6
3 10 1 10 -4 0 -23 15 -10 16 13 1 16 -4 27 -15 29 -11 3 -9 5 6 6 16 1 24 -6
29 -23z m289 -11 c0 -25 -4 -31 -27 -33 -22 -3 -29 2 -34 22 -8 34 3 48 34 44
23 -2 27 -8 27 -33z m72 -5 c1 -33 1 -33 -5 -6 -10 41 -32 46 -32 7 0 -17 -4
-31 -10 -31 -5 0 -10 16 -10 36 0 33 2 35 28 32 23 -3 27 -8 29 -38z m96 33
c-7 -2 -13 -18 -13 -34 0 -16 -4 -29 -10 -29 -5 0 -10 16 -10 35 0 30 3 35 23
34 12 0 16 -3 10 -6z m75 -30 c3 -31 1 -33 -27 -33 -30 0 -41 13 -21 25 6 3
10 1 10 -4 0 -23 15 -10 16 13 1 15 -5 27 -15 30 -9 3 -5 4 9 3 20 -2 26 -8
28 -34z m2660 -35 c6 -6 12 -19 12 -30 0 -11 5 -16 10 -13 6 4 22 -1 35 -9 36
-24 36 -83 0 -92 -42 -10 -75 3 -75 30 0 19 -5 24 -25 22 -18 -1 -25 -7 -25
-22 0 -32 -43 -48 -80 -29 -49 25 -31 95 24 99 17 0 26 7 26 18 0 39 61 55 98
26z"/>
<path d="M740 7825 c-9 -10 -9 -15 -1 -15 6 0 11 -8 12 -17 0 -14 2 -15 6 -3
3 8 10 18 15 21 5 3 3 11 -5 18 -11 9 -17 8 -27 -4z"/>
<path d="M681 7767 c-9 -11 -8 -17 4 -27 10 -9 15 -9 15 -1 0 6 8 11 18 12 13
0 14 2 2 6 -8 3 -18 10 -21 15 -3 5 -11 3 -18 -5z"/>
<path d="M810 7771 c0 -6 -8 -11 -17 -12 -14 0 -15 -2 -3 -6 8 -3 18 -10 21
-15 3 -5 11 -3 18 5 9 11 8 17 -4 27 -10 9 -15 9 -15 1z"/>
<path d="M750 7732 c0 -18 -5 -32 -12 -32 -9 0 -9 -3 0 -12 15 -15 16 -48 2
-48 -5 0 -10 6 -10 14 0 28 -19 26 -34 -2 -22 -42 -44 -48 -57 -15 -15 39 -31
15 -23 -35 4 -23 10 -42 15 -42 5 0 9 5 9 10 0 6 7 10 15 10 12 0 13 -4 5 -19
-14 -27 -13 -31 5 -24 9 3 24 -2 35 -12 18 -16 20 -16 26 -1 3 9 16 16 28 16
17 0 21 6 22 30 2 41 13 50 31 23 16 -24 43 -31 43 -12 0 5 5 7 10 4 6 -4 10
7 10 24 0 17 -4 31 -10 31 -5 0 -10 -10 -10 -22 -1 -23 -1 -23 -15 2 -12 23
-12 25 6 30 17 4 12 13 -36 60 l-55 54 0 -32z m76 -70 c-19 -4 -19 -10 -1 -42
16 -29 18 -40 7 -40 -5 0 -16 16 -25 36 -15 30 -20 34 -32 24 -13 -11 -15 -4
-15 46 l0 58 41 -39 c29 -29 36 -41 25 -43z"/>
<path d="M917 7643 c-14 -13 -6 -23 18 -21 29 3 35 28 7 28 -10 0 -22 -3 -25
-7z"/>
<path d="M1481 7074 c0 -11 3 -14 6 -6 3 7 2 16 -1 19 -3 4 -6 -2 -5 -13z"/>
<path d="M1881 7074 c0 -11 3 -14 6 -6 3 7 2 16 -1 19 -3 4 -6 -2 -5 -13z"/>
<path d="M1431 7064 c0 -11 3 -14 6 -6 3 7 2 16 -1 19 -3 4 -6 -2 -5 -13z"/>
<path d="M2191 7064 c0 -11 3 -14 6 -6 3 7 2 16 -1 19 -3 4 -6 -2 -5 -13z"/>
<path d="M1193 7023 c9 -2 23 -2 30 0 6 3 -1 5 -18 5 -16 0 -22 -2 -12 -5z"/>
<path d="M5840 8435 c0 -18 5 -25 19 -25 23 0 34 23 18 39 -19 19 -37 12 -37
-14z"/>
<path d="M6526 8425 c-3 -9 0 -15 9 -15 16 0 20 16 6 24 -5 3 -11 -1 -15 -9z"/>
<path d="M11093 7792 l-83 -3 2 -372 3 -372 2 368 3 367 68 -2 67 -1 -65 -7
-65 -7 61 -1 c36 -1 65 3 73 11 11 10 13 8 8 -10 -3 -13 1 -27 9 -34 13 -10
12 -15 -6 -31 -40 -38 -18 -35 43 5 35 23 59 45 55 48 -9 6 66 12 160 13 34 1
52 5 52 14 0 9 -30 12 -115 12 -114 0 -115 0 -115 -24 0 -57 -60 -57 -70 0
l-5 29 -82 -3z m247 -16 c0 -2 -11 -6 -25 -8 -14 -3 -25 -1 -25 3 0 5 11 9 25
9 14 0 25 -2 25 -4z"/>
<path d="M11540 7778 c0 -10 30 -13 115 -13 83 0 116 4 120 13 3 9 -24 12
-115 12 -89 0 -120 -3 -120 -12z"/>
<path d="M11840 7778 c0 -10 24 -13 85 -13 61 0 85 3 85 13 0 9 -24 12 -85 12
-61 0 -85 -3 -85 -12z"/>
<path d="M11090 7680 c0 -5 5 -10 10 -10 6 0 10 5 10 10 0 6 -4 10 -10 10 -5
0 -10 -4 -10 -10z"/>
<path d="M11130 7668 c0 -11 -8 -18 -20 -18 -11 0 -20 -7 -20 -15 0 -8 5 -15
10 -15 6 0 10 5 10 12 0 6 3 8 7 4 5 -4 -1 -14 -11 -22 -11 -8 -17 -14 -13
-14 4 0 0 -16 -8 -36 -8 -20 -15 -54 -15 -76 0 -35 -2 -39 -15 -28 -13 11 -15
-13 -15 -204 0 -185 2 -216 15 -216 8 0 15 -6 15 -14 0 -16 -40 -10 -52 8 -5
6 -8 1 -8 -11 0 -20 5 -23 38 -23 l37 0 0 269 c0 281 0 283 48 353 14 21 16
32 8 45 -10 17 -10 17 -11 1z"/>
<path d="M11487 7628 c-22 -17 -257 -425 -257 -447 0 -39 16 -41 280 -41 266
0 280 2 280 43 0 18 -218 406 -248 440 -18 20 -32 21 -55 5z m138 -238 c61
-105 109 -193 108 -196 -5 -9 -443 -9 -443 0 0 12 213 386 220 386 3 0 55 -86
115 -190z"/>
<path d="M11491 7448 c-20 -53 -34 -108 -29 -114 4 -3 14 -7 25 -8 19 -3 20
-10 8 -63 -7 -29 -5 -33 13 -33 17 0 25 11 38 54 19 61 14 86 -16 86 -18 0
-20 4 -14 23 19 56 -5 108 -25 55z"/>
<path d="M11046 7529 c-8 -42 0 -50 9 -9 4 17 5 34 2 36 -2 3 -7 -10 -11 -27z"/>
<path d="M9960 7300 c0 -5 16 -10 35 -10 19 0 35 5 35 10 0 6 -16 10 -35 10
-19 0 -35 -4 -35 -10z"/>
<path d="M9965 7250 c-4 -6 8 -10 29 -10 20 0 36 5 36 10 0 6 -13 10 -29 10
-17 0 -33 -4 -36 -10z"/>
<path d="M9710 7190 c0 -5 7 -10 15 -10 8 0 15 5 15 10 0 6 -7 10 -15 10 -8 0
-15 -4 -15 -10z"/>
<path d="M9780 7190 c0 -5 9 -10 20 -10 11 0 20 5 20 10 0 6 -9 10 -20 10 -11
0 -20 -4 -20 -10z"/>
<path d="M9942 7195 c9 -9 88 -11 88 -3 0 4 -21 8 -47 8 -25 0 -44 -2 -41 -5z"/>
<path d="M9970 7140 c0 -5 14 -10 30 -10 17 0 30 5 30 10 0 6 -13 10 -30 10
-16 0 -30 -4 -30 -10z"/>
<path d="M9710 7130 c0 -5 7 -10 15 -10 8 0 15 5 15 10 0 6 -7 10 -15 10 -8 0
-15 -4 -15 -10z"/>
<path d="M9780 7130 c0 -5 9 -10 20 -10 11 0 20 5 20 10 0 6 -9 10 -20 10 -11
0 -20 -4 -20 -10z"/>
<path d="M9963 7088 c-2 -5 12 -8 31 -8 20 0 36 3 36 8 0 4 -14 7 -31 7 -17 0
-33 -3 -36 -7z"/>
<path d="M9610 7070 c0 -11 5 -20 10 -20 6 0 10 9 10 20 0 11 -4 20 -10 20 -5
0 -10 -9 -10 -20z"/>
<path d="M9708 7073 c6 -2 18 -2 25 0 6 3 1 5 -13 5 -14 0 -19 -2 -12 -5z"/>
<path d="M9788 7073 c6 -2 18 -2 25 0 6 3 1 5 -13 5 -14 0 -19 -2 -12 -5z"/>
<path d="M9948 7033 c7 -3 16 -2 19 1 4 3 -2 6 -13 5 -11 0 -14 -3 -6 -6z"/>
<path d="M10007 7029 c8 -8 16 -8 30 0 16 9 14 10 -11 11 -22 0 -27 -3 -19
-11z"/>
<path d="M9705 7020 c-3 -5 3 -10 14 -10 12 0 21 5 21 10 0 6 -6 10 -14 10 -8
0 -18 -4 -21 -10z"/>
<path d="M9780 7018 c0 -4 9 -8 20 -8 11 0 20 4 20 9 0 6 -9 9 -20 8 -11 -1
-20 -5 -20 -9z"/>
<path d="M9950 6980 c-13 -8 -12 -10 3 -10 9 0 17 5 17 10 0 12 -1 12 -20 0z"/>
<path d="M10005 6980 c-4 -6 7 -10 27 -9 27 0 30 2 13 9 -27 12 -33 12 -40 0z"/>
<path d="M9330 6970 c0 -5 5 -10 11 -10 5 0 7 5 4 10 -3 6 -8 10 -11 10 -2 0
-4 -4 -4 -10z"/>
<path d="M9705 6960 c3 -5 13 -10 21 -10 8 0 14 5 14 10 0 6 -9 10 -21 10 -11
0 -17 -4 -14 -10z"/>
<path d="M9780 6960 c0 -5 9 -10 20 -10 11 0 20 5 20 10 0 6 -9 10 -20 10 -11
0 -20 -4 -20 -10z"/>
<path d="M9315 6922 c-16 -17 9 -21 140 -21 131 -1 184 8 138 23 -23 7 -270 5
-278 -2z"/>
<path d="M9710 6908 c0 -4 7 -8 15 -8 8 0 15 4 15 8 0 5 -7 9 -15 9 -8 0 -15
-4 -15 -9z"/>
<path d="M9785 6910 c-3 -5 3 -10 14 -10 12 0 21 5 21 10 0 6 -6 10 -14 10 -8
0 -18 -4 -21 -10z"/>
<path d="M10995 6830 c3 -5 35 -10 71 -10 36 0 64 4 64 10 0 6 -30 10 -71 10
-44 0 -68 -4 -64 -10z"/>
<path d="M11591 6824 c0 -11 3 -14 6 -6 3 7 2 16 -1 19 -3 4 -6 -2 -5 -13z"/>
<path d="M10188 6780 c2 -16 6 -30 8 -30 2 0 4 14 4 30 0 17 -4 30 -8 30 -5 0
-7 -13 -4 -30z"/>
<path d="M5323 8395 c0 -22 2 -30 4 -17 2 12 2 30 0 40 -3 9 -5 -1 -4 -23z"/>
<path d="M5425 8420 c-3 -5 3 -10 15 -10 12 0 18 5 15 10 -3 6 -10 10 -15 10
-5 0 -12 -4 -15 -10z"/>
<path d="M5584 8405 c-4 -9 0 -23 9 -32 21 -21 49 -9 45 19 -4 28 -45 38 -54
13z"/>
<path d="M6011 8407 c-15 -19 10 -53 33 -44 23 9 21 57 -3 57 -10 0 -24 -6
-30 -13z"/>
<path d="M6170 8420 c-12 -8 -10 -10 8 -10 13 0 20 4 17 10 -7 12 -6 12 -25 0z"/>
<path d="M6822 8421 c-21 -13 -11 -56 13 -56 15 0 20 7 20 29 0 31 -12 41 -33
27z"/>
<path d="M7000 8420 c-12 -8 -10 -10 8 -10 13 0 20 4 17 10 -7 12 -6 12 -25 0z"/>
<path d="M7388 8413 c6 -2 18 -2 25 0 6 3 1 5 -13 5 -14 0 -19 -2 -12 -5z"/>
<path d="M7552 8416 c1 -10 8 -17 13 -17 15 1 12 24 -3 29 -9 3 -13 -2 -10
-12z"/>
<path d="M4680 7976 c0 -2 7 -7 16 -10 8 -3 12 -2 9 4 -6 10 -25 14 -25 6z"/>
<path d="M4728 7953 c6 -2 12 -12 12 -20 0 -9 -6 -13 -15 -9 -8 3 -15 1 -15
-4 0 -6 6 -10 13 -10 27 0 116 -92 143 -147 87 -176 -30 -383 -226 -400 -112
-11 -228 57 -276 162 -13 27 -24 44 -24 36 0 -32 44 -103 87 -141 65 -57 139
-82 241 -82 81 0 100 -10 42 -23 -17 -4 -30 -10 -30 -14 0 -14 101 26 146 57
24 17 57 50 74 73 33 46 70 153 70 203 0 42 -23 122 -48 171 -37 73 -144 157
-194 154 -10 0 -10 -2 0 -6z"/>
<path d="M4333 7615 c0 -22 2 -30 4 -17 2 12 2 30 0 40 -3 9 -5 -1 -4 -23z"/>
<path d="M4586 7534 c-9 -24 -7 -28 9 -14 17 14 20 30 6 30 -5 0 -12 -7 -15
-16z"/>
<path d="M7890 7944 c40 -15 60 -28 60 -40 0 -7 -8 -10 -22 -7 -14 3 -5 -6 22
-24 56 -37 107 -94 131 -147 22 -49 25 -153 5 -208 -19 -53 -71 -114 -123
-145 -63 -37 -180 -44 -244 -16 -87 39 -152 116 -170 203 l-7 35 -1 -31 c-1
-37 39 -117 81 -161 17 -17 58 -44 92 -60 52 -24 74 -28 149 -28 48 0 87 -3
87 -7 0 -5 -7 -8 -15 -8 -8 0 -15 -5 -15 -11 0 -16 44 -3 89 25 56 36 118 111
141 172 31 85 28 192 -9 269 -48 101 -138 176 -231 190 -19 3 -28 3 -20 -1z"/>
<path d="M7541 7664 c0 -11 3 -14 6 -6 3 7 2 16 -1 19 -3 4 -6 -2 -5 -13z"/>
<path d="M7800 7515 c-7 -9 -11 -18 -8 -20 3 -3 11 1 18 10 7 9 11 18 8 20 -3
3 -11 -1 -18 -10z"/>
<path d="M7878 7273 c6 -2 18 -2 25 0 6 3 1 5 -13 5 -14 0 -19 -2 -12 -5z"/>
<path d="M11113 6443 c64 -2 170 -2 235 0 64 1 11 3 -118 3 -129 0 -182 -2
-117 -3z"/>
<path d="M11000 6390 c0 -6 83 -10 230 -10 147 0 230 4 230 10 0 6 -83 10
-230 10 -147 0 -230 -4 -230 -10z"/>
<path d="M11113 6333 c64 -2 170 -2 235 0 64 1 11 3 -118 3 -129 0 -182 -2
-117 -3z"/>
<path d="M11000 6280 c0 -6 83 -10 230 -10 147 0 230 4 230 10 0 6 -83 10
-230 10 -147 0 -230 -4 -230 -10z"/>
<path d="M11153 6228 c-2 -5 67 -8 153 -8 87 0 155 3 152 6 -9 8 -299 10 -305
2z"/>
<path d="M10990 6179 c0 -5 5 -7 10 -4 6 3 10 8 10 11 0 2 -4 4 -10 4 -5 0
-10 -5 -10 -11z"/>
<path d="M11160 6180 c0 -6 57 -10 150 -10 93 0 150 4 150 10 0 6 -57 10 -150
10 -93 0 -150 -4 -150 -10z"/>
<path d="M11086 6143 c-11 -11 -6 -23 9 -23 8 0 15 4 15 9 0 13 -16 22 -24 14z"/>
<path d="M11330 6100 c0 -5 5 -10 11 -10 5 0 7 5 4 10 -3 6 -8 10 -11 10 -2 0
-4 -4 -4 -10z"/>
<path d="M8415 6190 c-3 -5 0 -10 9 -10 24 0 78 -52 97 -95 24 -52 24 -97 -1
-145 -27 -54 -71 -82 -139 -89 -68 -7 -55 -20 23 -22 67 -2 95 14 141 82 26
38 30 53 29 106 0 54 -5 68 -30 100 -48 59 -114 97 -129 73z"/>
<path d="M8277 5869 c7 -7 15 -10 18 -7 3 3 -2 9 -12 12 -14 6 -15 5 -6 -5z"/>
<path d="M11052 5894 c-2 -35 4 -48 33 -79 19 -21 31 -43 28 -48 -3 -6 -1 -7
5 -3 18 11 14 34 -7 41 -27 8 -49 46 -54 91 l-4 39 -1 -41z"/>
<path d="M11158 5915 c-3 -5 -9 -25 -13 -42 -6 -29 -4 -33 14 -33 24 0 36 17
23 33 -5 7 -12 21 -14 32 -2 11 -6 16 -10 10z"/>
<path d="M11260 5889 c0 -22 -10 -41 -34 -65 -19 -19 -28 -34 -22 -34 24 0 58
48 63 89 3 23 3 41 -1 41 -3 0 -6 -14 -6 -31z"/>
<path d="M10510 5885 c-16 -19 2 -45 32 -45 15 0 19 6 16 27 -3 32 -29 41 -48
18z"/>
<path d="M11371 5811 c-17 -16 -31 -37 -31 -48 1 -11 6 -6 15 15 8 17 18 32
23 32 13 0 48 29 36 30 -7 0 -26 -13 -43 -29z"/>
<path d="M10289 5804 c26 -21 31 -33 31 -67 0 -45 -36 -97 -65 -97 -13 0 -13
-3 -3 -20 9 -13 14 -16 17 -8 2 7 17 28 32 46 39 44 41 111 4 147 -13 14 -29
25 -35 25 -6 0 2 -12 19 -26z"/>
<path d="M11148 5783 c6 -2 18 -2 25 0 6 3 1 5 -13 5 -14 0 -19 -2 -12 -5z"/>
<path d="M11423 5774 c-19 -8 -16 -59 5 -78 18 -15 20 -15 36 3 24 26 18 75
-9 78 -11 1 -26 -1 -32 -3z m37 -34 c0 -13 -28 -25 -38 -16 -3 4 0 11 8 16 20
13 30 12 30 0z"/>
<path d="M11101 5724 c0 -11 3 -14 6 -6 3 7 2 16 -1 19 -3 4 -6 -2 -5 -13z"/>
<path d="M10561 5704 c0 -11 3 -14 6 -6 3 7 2 16 -1 19 -3 4 -6 -2 -5 -13z"/>
<path d="M11341 5698 c-1 -9 12 -30 28 -46 22 -21 28 -36 24 -53 -4 -21 -3
-21 11 5 19 34 19 36 3 36 -15 0 -51 37 -60 60 -4 12 -6 12 -6 -2z"/>
<path d="M11091 5684 c0 -11 3 -14 6 -6 3 7 2 16 -1 19 -3 4 -6 -2 -5 -13z"/>
<path d="M10220 5670 c0 -5 5 -10 11 -10 5 0 7 5 4 10 -3 6 -8 10 -11 10 -2 0
-4 -4 -4 -10z"/>
<path d="M11081 5634 c0 -11 3 -14 6 -6 3 7 2 16 -1 19 -3 4 -6 -2 -5 -13z"/>
<path d="M10498 5472 c-81 -59 -153 -113 -160 -119 -10 -10 10 -13 99 -13 104
0 111 1 116 21 6 20 10 21 191 17 102 -1 185 0 184 4 -4 8 -270 198 -277 197
-3 0 -72 -49 -153 -107z"/>
<path d="M11377 5563 c-4 -3 -7 -11 -7 -17 0 -6 5 -5 12 2 6 6 9 14 7 17 -3 3
-9 2 -12 -2z"/>
<path d="M11198 5506 c-8 -7 -24 -17 -36 -20 -12 -4 -22 -11 -22 -17 0 -5 -15
-16 -32 -24 -38 -18 -76 -39 -84 -48 -3 -3 59 -5 137 -6 103 0 145 3 151 12 5
8 8 7 8 -5 0 -15 -15 -18 -132 -20 l-133 -3 -6 -95 c-3 -52 -6 -88 -8 -80 -1
8 -7 2 -12 -15 -6 -21 -4 -36 6 -52 8 -12 15 -36 15 -52 0 -29 0 -29 -72 -36
-40 -3 -230 -4 -423 -2 -329 4 -353 3 -407 -16 -32 -11 -58 -24 -58 -28 0 -5
341 -9 765 -9 457 0 765 4 765 9 0 5 -19 16 -42 23 -41 14 -43 16 -40 52 3 26
0 36 -7 32 -6 -4 -11 -18 -11 -32 0 -22 -3 -24 -22 -18 -13 3 -25 9 -28 11 -3
3 -7 63 -8 133 -4 122 -5 129 -25 132 -14 2 -35 26 -62 72 -45 77 -65 92 -65
50 0 -34 -13 -23 -16 14 -1 15 -2 33 -3 40 -1 17 -76 16 -93 -2z m2 -46 c0 -5
-7 -10 -15 -10 -8 0 -15 5 -15 10 0 6 7 10 15 10 8 0 15 -4 15 -10z m240 -250
c0 -6 -46 -10 -119 -10 -69 0 -122 4 -126 10 -4 6 38 10 119 10 77 0 126 -4
126 -10z m-92 -52 c21 -18 15 -41 -10 -34 -13 3 -38 0 -56 -6 -27 -10 -35 -10
-42 2 -7 11 -11 12 -24 0 -22 -18 -32 -5 -19 23 10 21 18 24 75 24 34 1 69 -4
76 -9z m-138 -93 c0 -16 -9 -19 -34 -9 -25 9 -19 24 9 24 16 0 25 -6 25 -15z
m180 5 c0 -5 -11 -10 -25 -10 -14 0 -25 5 -25 10 0 6 11 10 25 10 14 0 25 -4
25 -10z"/>
<path d="M10885 5455 c38 -31 45 -31 45 0 0 22 -4 25 -37 25 l-38 -1 30 -24z"/>
<path d="M10344 5248 c-5 -8 -2 -120 3 -131 7 -12 43 12 43 29 0 8 7 17 15 20
8 4 15 12 15 19 0 15 43 45 65 45 21 0 19 20 -2 21 -80 4 -136 3 -139 -3z"/>
<path d="M10663 5253 c-9 -3 -13 -31 -13 -88 0 -92 2 -95 69 -95 l37 0 2 71
c0 39 6 77 13 86 10 12 10 16 -2 24 -15 9 -85 11 -106 2z m72 -123 c3 -5 -3
-10 -15 -10 -12 0 -18 5 -15 10 3 6 10 10 15 10 5 0 12 -4 15 -10z m-2 -41
c-8 -8 -16 -8 -30 0 -16 9 -14 10 12 11 21 0 26 -3 18 -11z"/>
<path d="M10800 5184 c0 -41 4 -63 10 -59 6 3 10 12 10 20 0 7 7 15 15 19 8 3
15 12 15 20 0 14 32 38 55 42 6 0 16 2 23 2 6 1 12 7 12 12 0 6 -30 10 -70 10
l-70 0 0 -66z"/>
<path d="M10907 5142 c-10 -11 -14 -22 -10 -25 15 -9 35 9 31 28 -3 16 -5 15
-21 -3z"/>
<path d="M10470 5135 c-10 -12 -10 -15 4 -15 9 0 16 7 16 15 0 8 -2 15 -4 15
-2 0 -9 -7 -16 -15z"/>
<path d="M10137 5073 c-12 -11 -8 -23 8 -23 8 0 15 7 15 15 0 16 -12 20 -23 8z"/>
<path d="M11618 5053 c7 -3 16 -2 19 1 4 3 -2 6 -13 5 -11 0 -14 -3 -6 -6z"/>
<path d="M3285 5405 c-16 -14 -45 -31 -63 -37 l-33 -13 6 -60 c13 -106 51
-195 85 -195 40 0 129 133 146 217 5 26 2 33 -28 51 -19 12 -43 30 -53 42 -23
25 -23 25 -60 -5z m95 -84 c0 -5 -23 -35 -51 -65 -55 -61 -60 -61 -92 -7 -16
28 -17 32 -3 37 10 4 23 -3 34 -16 l18 -23 33 42 c30 38 61 54 61 32z"/>
<path d="M8259 5414 c-7 -8 -34 -26 -60 -40 -53 -26 -53 -26 -27 -149 29 -136
81 -158 147 -62 40 58 88 180 73 185 -21 7 -92 62 -92 72 0 16 -26 12 -41 -6z
m81 -96 c-1 -18 -86 -108 -102 -108 -14 0 -48 49 -48 69 0 18 27 12 41 -10 14
-20 15 -19 54 20 40 42 55 50 55 29z"/>
<path d="M3640 5285 c-14 -16 -5 -35 16 -35 15 0 20 35 5 44 -5 3 -14 -1 -21
-9z"/>
<path d="M3600 5165 c0 -13 67 -24 103 -17 31 6 17 22 -15 18 -18 -2 -45 0
-60 5 -21 5 -28 4 -28 -6z"/>
<path d="M3581 5114 c9 -11 8 -14 -1 -14 -8 0 -11 -2 -9 -5 6 -6 79 16 79 24
0 4 -18 7 -40 7 -33 1 -38 -1 -29 -12z"/>
<path d="M3661 5115 c3 -13 14 -21 33 -23 20 -3 27 0 23 10 -2 7 -10 12 -17
10 -7 -1 -19 3 -27 10 -13 10 -15 9 -12 -7z"/>
<path d="M3504 4329 c-19 -22 -19 -22 4 -10 12 6 22 16 22 21 0 15 -5 12 -26
-11z"/>
<path d="M3533 4314 c-12 -13 -18 -24 -13 -24 11 0 40 29 40 41 0 12 -1 11
-27 -17z"/>
<path d="M3345 4179 c83 -14 255 -24 330 -20 61 4 50 6 -90 17 -88 7 -189 12
-225 12 l-65 -1 50 -8z"/>
<path d="M8596 5275 c-3 -9 1 -18 10 -22 19 -7 39 11 30 26 -10 16 -33 13 -40
-4z"/>
<path d="M8560 5165 c0 -13 67 -24 103 -17 31 6 17 22 -15 18 -18 -2 -45 0
-60 5 -21 5 -28 4 -28 -6z"/>
<path d="M8534 5109 c0 -14 6 -17 31 -12 16 3 35 10 41 15 8 5 14 3 18 -7 6
-17 66 -21 66 -5 0 10 -14 14 -37 11 -7 -1 -13 2 -13 8 0 5 -24 9 -53 8 -43
-1 -53 -4 -53 -18z"/>
<path d="M8521 4359 c-1 -9 -11 -29 -23 -44 -14 -18 -17 -26 -7 -23 18 6 42
54 36 71 -3 7 -6 6 -6 -4z"/>
<path d="M8470 4328 c-12 -22 -12 -22 6 -6 10 10 15 20 12 24 -4 3 -12 -5 -18
-18z"/>
<path d="M8262 4185 c9 -9 312 -30 378 -26 54 3 37 6 -95 17 -171 13 -292 17
-283 9z"/>
<path d="M12098 5033 c68 -2 176 -2 240 0 64 1 9 3 -123 3 -132 0 -185 -2
-117 -3z"/>
<path d="M11990 4980 c0 -6 82 -10 225 -10 143 0 225 4 225 10 0 6 -82 10
-225 10 -143 0 -225 -4 -225 -10z"/>
<path d="M12098 4923 c68 -2 176 -2 240 0 64 1 9 3 -123 3 -132 0 -185 -2
-117 -3z"/>
<path d="M11990 4870 c0 -6 82 -10 225 -10 143 0 225 4 225 10 0 6 -82 10
-225 10 -143 0 -225 -4 -225 -10z"/>
<path d="M12150 4818 c0 -5 69 -7 153 -6 154 2 136 6 -51 10 -56 2 -102 0
-102 -4z"/>
<path d="M12025 4800 c-3 -5 -1 -10 4 -10 6 0 11 5 11 10 0 6 -2 10 -4 10 -3
0 -8 -4 -11 -10z"/>
<path d="M12045 4770 c-3 -5 -1 -10 4 -10 6 0 11 5 11 10 0 6 -2 10 -4 10 -3
0 -8 -4 -11 -10z"/>
<path d="M12150 4770 c0 -6 55 -10 144 -10 86 0 147 4 151 10 4 6 -47 10 -144
10 -94 0 -151 -4 -151 -10z"/>
<path d="M12078 4728 c-7 -18 2 -39 13 -32 12 7 12 44 0 44 -5 0 -11 -6 -13
-12z"/>
<path d="M4021 4664 c0 -11 3 -14 6 -6 3 7 2 16 -1 19 -3 4 -6 -2 -5 -13z"/>
<path d="M8980 4664 c0 -8 5 -12 10 -9 6 3 10 10 10 16 0 5 -4 9 -10 9 -5 0
-10 -7 -10 -16z"/>
<path d="M5973 4472 c-8 -5 -3 -11 13 -19 21 -10 24 -9 24 8 0 20 -16 24 -37
11z"/>
<path d="M6102 4471 c-10 -6 -8 -10 9 -14 26 -7 42 0 34 14 -8 11 -26 11 -43
0z"/>
<path d="M6040 4335 c0 -28 4 -35 20 -35 16 0 20 7 20 35 0 28 -4 35 -20 35
-16 0 -20 -7 -20 -35z"/>
<path d="M6312 4335 c-1 -29 2 -35 18 -35 16 0 20 7 20 35 0 27 -4 35 -18 35
-14 0 -19 -8 -20 -35z"/>
<path d="M10620 4360 c0 -11 7 -20 15 -20 8 0 15 9 15 20 0 11 -7 20 -15 20
-8 0 -15 -9 -15 -20z"/>
<path d="M11280 4175 c0 -17 5 -25 13 -22 6 2 12 12 12 22 0 10 -6 20 -12 23
-8 2 -13 -6 -13 -23z"/>
<path d="M11390 4190 c0 -5 5 -10 10 -10 6 0 10 5 10 10 0 6 -4 10 -10 10 -5
0 -10 -4 -10 -10z"/>
<path d="M10780 4205 c0 -8 7 -15 15 -15 8 0 15 7 15 15 0 8 -7 15 -15 15 -8
0 -15 -7 -15 -15z"/>
<path d="M10592 4191 c2 -7 7 -12 11 -12 12 1 9 15 -3 20 -7 2 -11 -2 -8 -8z"/>
<path d="M11020 4189 c0 -5 5 -7 10 -4 6 3 10 8 10 11 0 2 -4 4 -10 4 -5 0
-10 -5 -10 -11z"/>
<path d="M6152 3828 c2 -12 10 -23 18 -23 22 0 19 39 -3 43 -15 3 -18 -1 -15
-20z"/>
<path d="M5840 3831 c0 -25 19 -38 31 -20 12 19 6 33 -14 37 -11 2 -17 -3 -17
-17z"/>
<path d="M6402 3828 c2 -13 8 -23 13 -23 6 0 11 10 13 23 2 15 -2 22 -13 22
-11 0 -15 -7 -13 -22z"/>
<path d="M8208 3753 c7 -3 16 -2 19 1 4 3 -2 6 -13 5 -11 0 -14 -3 -6 -6z"/>
<path d="M9045 3780 c-3 -5 1 -10 9 -10 9 0 16 5 16 10 0 6 -4 10 -9 10 -6 0
-13 -4 -16 -10z"/>
<path d="M9115 3750 c-8 -14 3 -30 21 -30 8 0 14 9 14 20 0 21 -24 28 -35 10z"/>
<path d="M9264 3749 c-10 -17 13 -36 27 -22 12 12 4 33 -11 33 -5 0 -12 -5
-16 -11z"/>
<path d="M9040 3735 c0 -8 9 -15 20 -15 11 0 20 7 20 15 0 8 -9 15 -20 15 -11
0 -20 -7 -20 -15z"/>
<path d="M2805 3780 c-3 -5 3 -10 15 -10 12 0 18 5 15 10 -3 6 -10 10 -15 10
-5 0 -12 -4 -15 -10z"/>
<path d="M3795 3750 c-8 -14 3 -30 21 -30 8 0 14 9 14 20 0 21 -24 28 -35 10z"/>
<path d="M2990 3720 c0 -5 5 -10 10 -10 6 0 10 5 10 10 0 6 -4 10 -10 10 -5 0
-10 -4 -10 -10z"/>
<path d="M3208 3753 c7 -3 16 -2 19 1 4 3 -2 6 -13 5 -11 0 -14 -3 -6 -6z"/>
<path d="M3515 3720 c3 -5 8 -10 11 -10 2 0 4 5 4 10 0 6 -5 10 -11 10 -5 0
-7 -4 -4 -10z"/>
<path d="M4045 3720 c3 -5 8 -10 11 -10 2 0 4 5 4 10 0 6 -5 10 -11 10 -5 0
-7 -4 -4 -10z"/>
<path d="M8835 3720 c3 -5 8 -10 11 -10 2 0 4 5 4 10 0 6 -5 10 -11 10 -5 0
-7 -4 -4 -10z"/>
<path d="M11600 985 c-14 -8 -20 -14 -14 -15 5 0 19 7 30 15 24 18 16 19 -16
0z"/>
<path d="M12243 925 c0 -22 2 -30 4 -17 2 12 2 30 0 40 -3 9 -5 -1 -4 -23z"/>
<path d="M11841 934 c0 -11 3 -14 6 -6 3 7 2 16 -1 19 -3 4 -6 -2 -5 -13z"/>
<path d="M11910 930 c0 -11 5 -20 10 -20 6 0 10 9 10 20 0 11 -4 20 -10 20 -5
0 -10 -9 -10 -20z"/>
<path d="M11991 934 c0 -11 3 -14 6 -6 3 7 2 16 -1 19 -3 4 -6 -2 -5 -13z"/>
<path d="M12192 920 c0 -19 2 -27 5 -17 2 9 2 25 0 35 -3 9 -5 1 -5 -18z"/>
<path d="M11570 845 c0 -25 5 -45 11 -45 11 0 129 78 129 85 0 3 -31 5 -70 5
l-70 0 0 -45z"/>
<path d="M1580 916 c0 -22 3 -27 11 -19 8 8 8 16 0 30 -9 16 -10 14 -11 -11z"/>
<path d="M1661 924 c0 -11 3 -14 6 -6 3 7 2 16 -1 19 -3 4 -6 -2 -5 -13z"/>
<path d="M1852 910 c0 -19 2 -27 5 -17 2 9 2 25 0 35 -3 9 -5 1 -5 -18z"/>
<path d="M1902 910 c0 -19 2 -27 5 -17 2 9 2 25 0 35 -3 9 -5 1 -5 -18z"/>
<path d="M1250 835 c0 -25 3 -45 7 -45 10 0 100 60 113 76 11 12 3 14 -54 14
l-66 0 0 -45z"/>
<path d="M6230 2220 c0 -5 5 -10 10 -10 6 0 10 5 10 10 0 6 -4 10 -10 10 -5 0
-10 -4 -10 -10z"/>
<path d="M6230 2185 c0 -9 5 -15 11 -13 6 2 11 8 11 13 0 5 -5 11 -11 13 -6 2
-11 -4 -11 -13z"/>
<path d="M6300 2215 c0 -9 5 -15 11 -13 6 2 11 8 11 13 0 5 -5 11 -11 13 -6 2
-11 -4 -11 -13z"/>
<path d="M6400 2206 c0 -29 10 -38 29 -27 18 11 10 45 -12 49 -12 3 -17 -3
-17 -22z"/>
<path d="M6840 2206 c0 -29 10 -38 29 -27 18 11 10 45 -12 49 -12 3 -17 -3
-17 -22z"/>
<path d="M8984 2150 c-199 -64 -329 -241 -327 -450 4 -424 525 -621 810 -306
92 102 137 249 115 381 -46 279 -333 459 -598 375z m331 -39 c158 -78 255
-232 255 -406 0 -175 -95 -328 -253 -405 -227 -110 -495 -13 -606 219 -35 73
-36 80 -36 186 0 106 1 113 36 185 55 116 158 209 272 246 27 9 80 13 152 11
103 -2 115 -4 180 -36z"/>
<path d="M3426 2144 c-175 -42 -320 -205 -345 -387 -32 -228 109 -447 328
-511 75 -22 195 -21 270 3 218 68 359 292 322 513 -45 274 -306 447 -575 382z
m243 -23 c33 -10 80 -30 103 -44 54 -32 139 -121 167 -175 184 -360 -162 -763
-542 -633 -202 70 -334 288 -299 491 48 271 316 440 571 361z"/>
<path d="M3415 1935 c-60 -36 -118 -74 -127 -86 -15 -18 -18 -43 -18 -160 0
-121 2 -141 18 -157 37 -37 252 -154 269 -147 46 17 245 139 253 155 6 10 10
79 10 153 0 114 -3 138 -17 156 -23 26 -238 151 -261 151 -9 0 -66 -30 -127
-65z m260 -33 l110 -67 3 -142 3 -142 -93 -54 c-51 -30 -108 -62 -126 -71
l-32 -17 -118 69 -117 68 -3 141 c-2 104 1 143 10 151 31 25 224 132 238 131
8 0 65 -31 125 -67z"/>
<path d="M3451 1890 c-104 -60 -111 -67 -79 -75 18 -5 44 5 98 36 l74 43 78
-43 c52 -28 85 -40 98 -36 11 4 18 10 15 15 -6 10 -182 110 -192 109 -5 0 -46
-22 -92 -49z"/>
<path d="M3468 1802 c-16 -9 -28 -19 -28 -23 0 -3 16 -14 35 -24 38 -21 59
-13 29 11 -13 11 -15 17 -6 20 13 6 17 34 5 34 -5 0 -20 -8 -35 -18z"/>
<path d="M3557 1802 c-48 -29 -31 -40 26 -17 32 13 17 -13 -20 -36 -55 -33
-19 -36 40 -4 26 15 47 30 47 34 0 4 -15 14 -33 23 -31 15 -36 15 -60 0z"/>
<path d="M3330 1685 c0 -104 2 -115 20 -125 11 -6 20 -7 21 -3 0 4 0 41 -1 80
-1 82 4 100 26 82 10 -8 14 -37 14 -104 0 -90 5 -105 36 -105 2 0 4 39 4 86 0
76 2 85 18 82 14 -3 17 -17 20 -100 2 -85 5 -99 22 -108 19 -10 20 -7 20 109
l0 119 -94 51 c-52 28 -97 51 -100 51 -3 0 -6 -52 -6 -115z"/>
<path d="M3653 1749 l-93 -50 0 -115 c0 -78 4 -114 11 -114 7 0 52 21 100 47
79 42 89 51 89 75 l0 27 -72 -39 c-82 -44 -88 -46 -88 -25 0 8 31 32 70 52 61
33 70 42 70 66 l0 29 -65 -36 c-36 -20 -68 -36 -70 -36 -3 0 -5 8 -5 18 0 11
27 32 80 60 67 36 80 47 80 67 0 14 -3 25 -7 25 -5 0 -50 -23 -100 -51z"/>
<path d="M6017 2032 c-9 -10 -37 -28 -62 -41 -43 -21 -45 -25 -45 -65 0 -88
50 -216 84 -216 23 0 85 75 115 140 44 98 46 107 19 121 -13 6 -39 27 -59 45
-34 33 -36 34 -52 16z m73 -98 c0 -8 -23 -39 -50 -67 l-50 -52 -25 30 c-14 17
-25 35 -25 42 0 23 21 24 40 1 l20 -23 36 43 c38 44 54 52 54 26z"/>
<path d="M6357 1904 c-15 -15 -7 -45 11 -42 9 2 17 12 17 22 0 20 -16 31 -28
20z"/>
<path d="M6310 1776 c0 -8 18 -13 50 -15 28 -1 50 3 50 8 0 5 -11 8 -25 6 -14
-1 -25 1 -25 4 0 3 -11 7 -25 7 -14 1 -25 -4 -25 -10z"/>
<path d="M6300 1730 c0 -12 32 -22 39 -13 9 12 41 15 41 3 0 -5 14 -10 31 -10
19 0 28 4 24 11 -4 6 -13 8 -21 5 -7 -3 -16 -1 -19 4 -7 11 -95 11 -95 0z"/>
<path d="M6461 1724 c0 -11 3 -14 6 -6 3 7 2 16 -1 19 -3 4 -6 -2 -5 -13z"/>
<path d="M6737 1294 c-4 -4 -7 -14 -7 -23 0 -11 3 -12 11 -4 6 6 10 16 7 23
-2 6 -7 8 -11 4z"/>
<path d="M6270 961 c0 -6 -11 -23 -25 -36 -23 -24 -23 -33 1 -17 16 10 37 53
30 60 -3 3 -6 0 -6 -7z"/>
<path d="M6216 945 c-16 -12 -17 -15 -4 -15 9 0 18 7 22 15 7 18 6 18 -18 0z"/>
<path d="M6020 802 c0 -12 95 -22 280 -27 170 -4 171 -2 5 14 -190 18 -285 22
-285 13z"/>
<path d="M11558 1433 c7 -3 16 -2 19 1 4 3 -2 6 -13 5 -11 0 -14 -3 -6 -6z"/>
<path d="M11565 1370 c3 -5 8 -10 11 -10 2 0 4 5 4 10 0 6 -5 10 -11 10 -5 0
-7 -4 -4 -10z"/>
<path d="M1190 1483 c-79 -46 -81 -49 -78 -122 l3 -65 62 -39 62 -38 48 27
c79 45 84 52 82 108 -1 28 -4 59 -6 69 -4 16 -103 87 -121 87 -4 0 -27 -12
-52 -27z m90 -13 c39 -20 60 -40 41 -40 -5 0 -26 9 -45 21 l-36 21 -35 -22
c-19 -12 -40 -20 -47 -18 -8 3 64 55 80 58 1 0 20 -9 42 -20z m-65 -60 c3 -5
1 -10 -4 -10 -6 0 -11 5 -11 10 0 6 2 10 4 10 3 0 8 -4 11 -10z m75 6 c0 -3
-4 -8 -10 -11 -5 -3 -10 -1 -10 4 0 6 5 11 10 11 6 0 10 -2 10 -4z m60 -6 c0
-5 -18 -20 -40 -32 -59 -34 -51 -49 13 -23 33 14 17 -11 -18 -28 -19 -9 -35
-21 -35 -27 0 -13 6 -13 41 6 17 8 33 13 37 10 6 -7 7 -7 -41 -34 -21 -12 -42
-22 -48 -22 -5 0 -9 25 -9 55 l0 55 48 24 c56 30 52 28 52 16z m-160 -20 c39
-20 40 -21 40 -75 0 -30 -4 -55 -10 -55 -5 0 -10 23 -10 50 0 28 -4 50 -10 50
-5 0 -10 -18 -10 -41 0 -24 -4 -38 -10 -34 -5 3 -10 26 -10 51 0 24 -4 44 -10
44 -5 0 -10 -18 -10 -41 0 -24 -4 -38 -10 -34 -13 8 -13 105 0 105 6 0 29 -9
50 -20z"/>
<path d="M12085 1403 c-39 -25 -72 -50 -75 -54 -10 -15 2 -139 13 -139 7 1 42
23 80 51 l67 49 0 70 c0 39 -3 70 -8 70 -4 0 -39 -21 -77 -47z"/>
<path d="M1747 1381 l-75 -49 5 -69 c3 -37 7 -69 8 -71 2 -2 35 18 74 44 59
39 71 52 71 74 0 15 3 48 6 74 4 28 3 46 -3 46 -6 0 -44 -22 -86 -49z"/>
<path d="M3745 920 c-8 -14 3 -30 21 -30 8 0 14 9 14 20 0 21 -24 28 -35 10z"/>
<path d="M3350 926 c0 -9 5 -16 10 -16 6 0 10 4 10 9 0 6 -4 13 -10 16 -5 3
-10 -1 -10 -9z"/>
<path d="M9157 913 c-14 -13 -6 -33 13 -33 13 0 20 7 20 20 0 19 -20 27 -33
13z"/>
<path d="M8800 930 c0 -13 5 -20 13 -17 6 2 12 10 12 17 0 7 -6 15 -12 18 -8
2 -13 -5 -13 -18z"/>
<path d="M3560 930 c0 -5 5 -10 10 -10 6 0 10 5 10 10 0 6 -4 10 -10 10 -5 0
-10 -4 -10 -10z"/>
<path d="M8888 913 c7 -3 16 -2 19 1 4 3 -2 6 -13 5 -11 0 -14 -3 -6 -6z"/>
<path d="M9298 913 c7 -3 16 -2 19 1 4 3 -2 6 -13 5 -11 0 -14 -3 -6 -6z"/>
<path d="M5570 324 c0 -28 4 -35 16 -32 40 8 44 68 4 68 -16 0 -20 -6 -20 -36z"/>
<path d="M5680 336 c0 -9 5 -16 10 -16 6 0 10 4 10 9 0 6 -4 13 -10 16 -5 3
-10 -1 -10 -9z"/>
<path d="M6350 315 c0 -26 24 -35 32 -12 7 18 -2 37 -18 37 -8 0 -14 -10 -14
-25z"/>
</g>
</svg>
